<svg xmlns="http://www.w3.org/2000/svg" viewBox="0 0 512 512">
<path fill="#FFFFFF" d="M256,463.8c-114.6,0-207.8-93.2-207.8-207.8c0-55.5,21.6-107.7,60.9-146.9c39.2-39.2,91.4-60.8,146.9-60.8
	s107.7,21.6,146.9,60.8s60.9,91.4,60.9,146.9C463.8,370.5,370.6,463.8,256,463.8z"/>
<path fill="#D13530" d="M256,8C119,8,8,119,8,256s111,248,248,248s248-111,248-248S392.9,8,256,8z M256,463.7
	c-114.6,0-207.8-93.2-207.8-207.8c0-55.5,21.6-107.7,60.9-146.9c39.2-39.2,91.4-60.8,146.9-60.8S363.7,69.8,402.9,109
	s60.9,91.4,60.9,146.9C463.8,370.5,370.6,463.7,256,463.7z"/>
<g>
	<path fill="#D13530" d="M137.3,346.4c-7.8,7.8-7.8,20.5,0,28.3s20.5,7.8,28.3,0l209.2-209.2c7.8-7.8,7.8-20.5,0-28.3
		s-20.5-7.8-28.3,0L137.3,346.4z"/>
	<path fill="#D13530" d="M165.6,137.3c-7.8-7.8-20.5-7.8-28.3,0s-7.8,20.5,0,28.3l209.2,209.2c7.8,7.8,20.5,7.8,28.3,0
		s7.8-20.5,0-28.3L165.6,137.3z"/>
</g>
</svg>
