<svg xmlns="http://www.w3.org/2000/svg" viewBox="0 0 512 512">
<path fill="#ffffff" d="M316.666,367.25c11.047,0,20-8.954,20-20v-152c0-11.046-8.953-20-20-20c-11.045,0-20,8.954-20,20v152
	C296.666,358.296,305.621,367.25,316.666,367.25z M459.334,415.25H72.666V76.75c0-11.046-8.954-20-20-20s-20,8.954-20,20v358.5
	c0,11.046,8.954,20,20,20h406.668c11.045,0,20-8.954,20-20S470.379,415.25,459.334,415.25z M404.666,367.25
	c10.357,0,18.873-7.87,19.896-17.955c0.068-0.672,0.104-1.354,0.104-2.045v-248c0-11.046-8.953-20-20-20c-11.045,0-20,8.954-20,20
	v248c0,0.69,0.035,1.373,0.104,2.045C385.795,359.38,394.311,367.25,404.666,367.25z M228.666,367.25c11.046,0,20-8.954,20-20v-200
	c0-11.046-8.954-20-20-20s-20,8.954-20,20v200C208.666,358.296,217.62,367.25,228.666,367.25z M140.666,367.25
	c11.046,0,20-8.954,20-20v-88c0-11.046-8.954-20-20-20s-20,8.954-20,20v88C120.666,358.296,129.62,367.25,140.666,367.25z"/>
</svg>
