<svg xmlns="http://www.w3.org/2000/svg" viewBox="0 0 512 512">
<path fill="#404040" d="M285.999,206.5v-100c0-11.001,8.999-20,20-20l0,0c11.001,0,20,8.999,20,20v51.499L442,42
	c3.999-4.001,8.999-6,13.999-6s10,2,13.999,6.001c8.003,8,8.003,20.5,0,28.499L354.5,186.5h51.499c11.001,0,20,8.999,20,20
	s-8.999,20-20,20h-100c-5.498,0-10.498-2-13.999-6.001C288.001,217,285.999,212,285.999,206.5z M70.315,470.001l113.999-113.999
	v51.499c0,11.001,8.999,20.001,20,20.001l0,0c11.001,0,20-9,20-20v-100c0-5.498-2-10.498-6.001-13.999
	c-3.999-3.999-8.999-6.001-14.499-6.001h-100c-10.999,0-20,8.999-20,20s9.001,20,20,20h52l-114,113.998
	c-8,8.003-7.5,20.503,0,28.501S62.314,477.999,70.315,470.001z"/>
</svg>
