<svg xmlns="http://www.w3.org/2000/svg" viewBox="0 0 512 512">
<path opacity="0.9" fill="#FFFFFF" enable-background="new    " d="M256,456c-110.3,0-200-89.7-200-200
	c0-53.4,20.8-103.7,58.6-141.4C152.4,76.8,202.6,56,256,56s103.6,20.8,141.4,58.6S456,202.6,456,256C456,366.3,366.3,456,256,456z"
	/>
<path fill="#D13530" d="M256,8C119,8,8,119,8,256s111,248,248,248s248-111,248-248S393,8,256,8z M256,456c-110.3,0-200-89.7-200-200
	c0-53.4,20.8-103.7,58.6-141.4C152.4,76.8,202.6,56,256,56s103.6,20.8,141.4,58.6S456,202.6,456,256C456,366.3,366.3,456,256,456z"
	/>
<path fill="#D13530" d="M414.1,414.1c-7,7-17.7,7.7-23.8,1.6l-294-294c-6.1-6.1-5.4-16.8,1.6-23.8c7-7,17.7-7.7,23.8-1.6l294,294
	C421.9,396.4,421.2,407.1,414.1,414.1z"/>
</svg>
