<svg xmlns="http://www.w3.org/2000/svg" viewBox="0 0 512 512">
<path fill="#0075BF" d="M433.9,98L350,14.1C341,5.1,328.8,0,316.1,0H112C85.5,0.1,64,21.5,64,48v416c0,26.5,21.5,48,48,48h288
	c26.5,0,48-21.5,48-48V131.9C448,119.3,442.9,106.9,433.9,98z"/>
<path fill="#FFFFFF" stroke="#FFFFFF" stroke-width="40" stroke-miterlimit="10" d="M311.4,217.7c-47.2,4-78.1,11-105,23.7
	c-21,10-35.3,22.3-42.3,36.7l-3.5,7.1v84.5v84.5l4,8.3c13.8,27.8,54.7,47.7,117.4,57.1c23.4,3.5,85,3.1,108.9-0.6
	c34.2-5.4,62.5-14.3,82.6-26c12.8-7.5,26.5-21.2,31.4-31.2l3.6-7.5v-83.9v-83.9l-3.9-8.1c-2.1-4.5-5.9-10.4-8.4-13.3
	c-18.9-21.7-60.3-37.9-114.2-44.9C367.7,218.2,323,216.7,311.4,217.7z M380.8,245c51.7,7.6,87.6,24.5,95.1,44.8
	c10.3,27.5-32.4,53.7-100.5,61.7c-21,2.5-62.7,2.5-82.9,0c-70.2-8.8-112.4-36.1-98.8-64.1c7.3-15,34-29.8,68.1-37.7
	c10.3-2.4,31.7-5.6,45.7-7C319.1,241.8,368.7,243.3,380.8,245z M204.1,351.8c42.1,38.4,173.8,45.4,240.9,12.9
	c14.6-7.1,26.3-17,29.9-25.4l2.4-5.3l0.4,20.5c0.3,20,0.3,20.8-2.9,27.3c-9.6,19.5-45.1,35.4-95.1,42.6c-20.9,3-69.3,2.9-90.1-0.1
	c-40.3-5.8-69.9-16.3-86-30.8c-11.1-9.9-12.3-13.5-12.3-38.4l0.1-21l3,5.8C195.9,342.9,200.3,348.3,204.1,351.8z M203.2,419.9
	c15,13.9,42.8,24.4,81.2,30.8c11,1.7,20.9,2.3,50.1,2.3c39.8,0,50.7-1.1,78.1-8.1c33.3-8.6,54.3-21.3,62.2-37.1l2.9-6.1v21.3
	c0.1,18.4-0.3,22-2.4,26.7c-7.4,16.3-36.4,31.8-74.1,39.6c-29,6-75.1,8-104.9,4.6c-44.1-5-82.5-18.9-96.4-34.8
	c-7.9-8.9-8.8-12.4-8.8-36.1v-21.3l3,6.3C195.8,411.3,199.8,416.8,203.2,419.9z"/>
<polygon fill="#FFFFFF" points="396.1,128.1 320,128.1 320,52 "/>
<path fill="#FFFFFF" d="M112,464V48h160v104c0,13.3,10.7,24,24,24h104v288H112z"/>
<rect x="214" y="228" fill="#FFFFFF" width="284" height="265.3"/>
<path fill="#E98D27" d="M304.3,228.3c-44,3.7-72.8,10.3-97.9,22c-19.6,9.3-32.9,20.8-39.4,34.2l-3.3,6.6v78.7v78.7l3.7,7.7
	c12.8,25.9,51,44.4,109.4,53.2c21.8,3.3,79.2,2.9,101.5-0.6c31.8-5,58.2-13.3,77-24.3c11.9-7,24.7-19.7,29.3-29l3.4-7v-78.1v-78.1
	l-3.6-7.6c-2-4.2-5.5-9.7-7.8-12.4c-17.6-20.2-56.2-35.3-106.4-41.9C356.8,228.8,315.2,227.4,304.3,228.3z M369,253.7
	c48.2,7.1,81.6,22.9,88.6,41.8c9.6,25.7-30.2,50-93.7,57.5c-19.6,2.3-58.4,2.3-77.2,0c-65.4-8.2-104.7-33.6-92-59.7
	c6.8-14,31.7-27.8,63.4-35.1c9.6-2.2,29.5-5.2,42.6-6.5C311.5,250.7,357.7,252.1,369,253.7z M204.4,353.2
	c39.2,35.8,161.9,42.3,224.4,12c13.6-6.6,24.5-15.9,27.9-23.7l2.2-4.9l0.3,19.1c0.2,18.7,0.2,19.4-2.7,25.4c-9,18.2-42,33-88.6,39.7
	c-19.5,2.8-64.6,2.7-84-0.1c-37.6-5.4-65.1-15.2-80.1-28.7c-10.4-9.2-11.4-12.6-11.4-35.8l0.1-19.6l2.8,5.4
	C196.8,344.9,200.9,349.9,204.4,353.2z M203.5,416.7c14,12.9,39.9,22.7,75.7,28.7c10.3,1.6,19.5,2.1,46.7,2.1
	c37.1,0,47.2-1.1,72.8-7.6c31-8,50.6-19.8,58-34.5l2.7-5.7v19.8c0.1,17.1-0.2,20.5-2.2,24.8c-6.9,15.2-33.9,29.6-69,36.9
	c-27.1,5.6-70,7.5-97.7,4.3c-41.1-4.7-76.9-17.6-89.8-32.4c-7.3-8.3-8.2-11.5-8.2-33.6v-19.8l2.8,5.8
	C196.7,408.6,200.4,413.7,203.5,416.7z"/>
</svg>
