<svg xmlns="http://www.w3.org/2000/svg" viewBox="0 0 512 512">
<path fill="#0075BF" d="M433.9,98L350,14.1C341,5.1,328.8,0,316.1,0H112C85.5,0.1,64,21.5,64,48v416c0,26.5,21.5,48,48,48h288
	c26.5,0,48-21.5,48-48V131.9C448,119.3,442.9,106.9,433.9,98z"/>
<polygon fill="#FFFFFF" points="396.1,128.1 320,128.1 320,52 "/>
<path fill="#FFFFFF" d="M112,464V48h160v104c0,13.3,10.7,24,24,24h104v288H112z"/>
<circle fill="#527C00" stroke="#FFFFFF" stroke-width="32" stroke-miterlimit="10" cx="340" cy="351" r="163"/>
<path fill="#FFFFFF" d="M352.2,232.2c6,0,10.8,4.9,10.8,10.8l0,0v221.1c0,6-4.9,10.8-10.8,10.8h-21.7c-6,0-10.8-4.9-10.8-10.8l0,0
	V243.1l0,0c0-6,4.9-10.8,10.8-10.8H352.2z"/>
<path fill="#FFFFFF" d="M462.8,364.5c0,6-4.9,10.8-10.8,10.8l0,0H230.8c-6,0-10.8-4.9-10.8-10.8v-21.7c0-6,4.9-10.8,10.8-10.8l0,0
	h221.1l0,0c6,0,10.8,4.9,10.8,10.8V364.5z"/>
</svg>
