<svg xmlns="http://www.w3.org/2000/svg" viewBox="0 0 512 512">
<path id="XMLID_30_" fill="#404040" d="M131,291c-8.999,0-18.501-3.999-25-10.498c-6.499-6.504-10-15.503-10-24.502s3.999-18,10-25
	c6.499-6.499,15.5-10,25-10c8.999,0,18,3.999,24.5,10c6.501,6.499,10.5,15.5,10.5,25c0,8.999-3.999,17.998-10.5,24.502
	C149,287.001,139.999,291,131,291z M280.502,280.502C287.001,273.998,291,264.999,291,256s-3.999-18-10.498-25
	c-6.504-6.499-15.503-10-24.502-10s-18.501,3.999-25,10c-6.499,6.499-10,15.5-10,25c0,8.999,3.999,17.998,10,24.502
	c6.499,6.499,15.5,10.498,25,10.498C264.999,291,273.998,287.001,280.502,280.502z M405.502,280.502
	C412.001,273.998,416,264.999,416,256s-3.999-18-10.498-25c-6.504-6.499-15.503-10-24.502-10s-18.501,3.999-25,10
	c-6.499,6.499-10,15.5-10,25c0,8.999,3.999,17.998,10,24.502c6.499,6.499,15.498,10.498,25,10.498
	C389.999,291,398.998,287.001,405.502,280.502z"/>
</svg>
