<svg xmlns="http://www.w3.org/2000/svg" viewBox="0 0 512 512">
<path fill="#5E5E5E" d="M512,384v104c0,13.3-10.7,24-24,24H24c-13.3,0-24-10.7-24-24V384c0-13.3,10.7-24,24-24h146.7l49,49
	c20.1,20.1,52.5,20.1,72.6,0l49-49H488C501.3,360,512,370.7,512,384z M388,464c0-11-9-20-20-20s-20,9-20,20s9,20,20,20
	S388,475,388,464z M452,464c0-11-9-20-20-20s-20,9-20,20s9,20,20,20S452,475,452,464z"/>
<path fill="#527C00" d="M240,0h32c13.3,0,24,10.7,24,24v208h71.7c17.8,0,26.7,21.5,14.1,34.1L269.7,378.3c-7.5,7.5-19.8,7.5-27.3,0
	L130.1,266.1c-12.6-12.6-3.7-34.1,14.1-34.1H216V24C216,10.7,226.7,0,240,0z"/>
</svg>
