<svg xmlns="http://www.w3.org/2000/svg" viewBox="0 0 512 512">
<g>
	<g>
		<path fill="#E98D27" d="M408.7,200.8L311.9,104c-4.8-4.7-12.4-4.7-17.1,0L32.1,366.5L3.9,481c-2.9,16.4,11.4,30.6,27.8,27.8
			l114.5-28.3l262.6-262.6C413.4,213.1,413.4,205.5,408.7,200.8z"/>
		<path fill="#DF3834" d="M494.4,64.4l-47.5-47.5c-18.8-18.7-49.2-18.7-67.9,0l-46.1,46.1c-4.7,4.7-4.7,12.3,0,17l98.4,98.4
			c4.7,4.7,12.3,4.7,17,0l46.1-46.1C513.2,113.5,513.2,83.1,494.4,64.4z"/>
		<path fill="#646464" d="M7.1,468.1L3.9,481c-2.9,16.4,11.4,30.6,27.8,27.8l12.9-3.2L7.1,468.1z"/>
	</g>
	<path fill="#FFFFFF" d="M280.4,162c5.5-5.5,14.3-5.5,19.8,0s5.5,14.3,0,19.8l-154,154c-5.5,5.5-14.3,5.5-19.8,0s-5.5-14.3,0-19.8
		L280.4,162z"/>
	<polygon fill="#FFFFFF" points="67.9,461.6 50.9,444.6 69.3,373.1 98.5,380.2 105.6,407 132.4,414.1 139.4,443.2 	"/>
</g>
</svg>
