<?xml version="1.0" encoding="utf-8"?>
<!-- Generator: Adobe Illustrator 22.1.0, SVG Export Plug-In . SVG Version: 6.00 Build 0)  -->
<svg version="1.1" id="Layer_1" xmlns="http://www.w3.org/2000/svg" xmlns:xlink="http://www.w3.org/1999/xlink" x="0px" y="0px"
	 viewBox="0 0 20 20" enable-background="new 0 0 20 20" xml:space="preserve">
<path fill="#207245" d="M15.5,1.4L14.3,0H4.7c-0.7,0-1,0.5-1,0.9v3.6h1.4V1.7c0-0.2,0.1-0.3,0.3-0.3h6.9c0.2,0,0.2,0,0.2,0.2v4.8
	h4.9c0.2,0,0.3,0.1,0.3,0.2v11.8c0,0.2-0.1,0.3-0.2,0.3H5.3c-0.2,0-0.3-0.1-0.3-0.3v-1.1H3.7V19c0,0.6,0.3,1,1,1h13.4
	c0.7,0,0.9-0.5,0.9-1V6.4V5.2l-0.3-0.4L15.5,1.4z M13.8,1.5L14.2,2l2.6,2.9L17,5h-2.7c-0.2,0-0.3,0-0.4-0.1s-0.1-0.2-0.1-0.3
	L13.8,1.5z M12.7,10.7h4.6V12h-4.6L12.7,10.7z M12.7,8h4.6v1.3h-4.6L12.7,8z M12.7,13.3h4.6v1.3h-4.6L12.7,13.3z M1,5.6v10.7h10.5
	V5.6H1z M6.2,11.8l-0.6,1h0.6V14H3l2.3-3.5L3.3,7.3H5l1.2,1.8l1.2-1.8h1.7l-2.1,3.2L9.4,14H7.7L6.2,11.8z"/>
</svg>
