<svg xmlns="http://www.w3.org/2000/svg" viewBox="0 0 512 512">
<circle fill="#404040" cx="249.1" cy="431.3" r="27.8"/>
<path fill="#404040" d="M249.4,363.3c-11,0-20-9-20-20c0-38.3,14.4-69.6,42.9-93c4.5-3.7,9.2-7.4,13.8-11
	c27.9-21.9,54.3-42.6,54.3-79.9c0-43.3-38.2-78.5-85.2-78.5c-41.6,0-76.9,27.4-84,65.1c-2,10.9-12.5,18-23.3,16
	c-10.9-2-18-12.5-16-23.3c10.6-56.7,62.4-97.8,123.3-97.8c69,0,125.2,53.1,125.2,118.5c0,56.8-38.6,87.1-69.6,111.4
	c-4.6,3.6-8.9,7-13.1,10.4c-19.3,15.9-28.3,35.7-28.3,62.2C269.4,354.3,260.5,363.3,249.4,363.3z"/>
</svg>
