<svg xmlns="http://www.w3.org/2000/svg" viewBox="0 0 512 512">
	<polygon opacity="0.9" fill="#FFFFFF" points="316,56 56,56 56,456 456,456 456,196 	"/>
	<path fill="#2394D5" d="M456,480H56c-13.3,0-24-10.7-24-24V56c0-13.3,10.7-24,24-24h260c6.4,0,12.5,2.5,17,7l140,140
		c4.5,4.5,7,10.6,7,17v260C480,469.3,469.3,480,456,480z M80,432h352V205.9L306.1,80H80V432z"/>
	<path fill="#2394D5" d="M337,352H184c-13.3,0-24-10.7-24-24V175c0-13.3,10.7-24,24-24s24,10.7,24,24v129h129c13.3,0,24,10.7,24,24
		S350.3,352,337,352z"/>
	<path fill="#2394D5" d="M184,352c-6.1,0-12.3-2.3-17-7c-9.4-9.4-9.4-24.6,0-33.9L455.8,22.3c9.4-9.4,24.6-9.4,33.9,0
		c9.4,9.4,9.4,24.6,0,33.9L201,345C196.3,349.7,190.1,352,184,352z"/>
</svg>
