<svg xmlns="http://www.w3.org/2000/svg" viewBox="0 0 512 512">
<path fill="#404040" d="M256,0C168.4,1,98.1,72.9,99.1,160.6c0,0.8,0,1.4,0,2.2c0,89.7,85.6,211.3,156.7,349.2
	c71.1-137.9,157-259.4,157-349.3C415.1,75.1,345.9,2.2,258.3,0C257.5,0,256.8,0,256,0z M256,444c-9.5-17.4-19-34.5-28.5-51.1
	c-49.5-88.4-96.4-171.8-96.4-230.1c-3.4-68.9,49.5-127.5,118.4-131.1c68.9-3.4,127.5,49.5,131.1,118.4c0.3,4.3,0.3,8.4,0,12.7
	c0,58.2-46.9,141.7-96.4,229.9C275.3,409.6,265.6,426.7,256,444L256,444z M256,90.7c-38.3-0.7-69.8,29.9-70.4,68.1
	c-0.7,38.3,29.9,69.8,68.1,70.4c38.3,0.7,69.8-29.9,70.4-68.1c0-0.4,0-0.8,0-1.1C324.5,122,294,91,256,90.7
	C256.1,90.7,256,90.7,256,90.7L256,90.7z M256,197.3c-20.7,0.7-37.8-15.4-38.5-36.1s15.4-37.8,36.1-38.5
	c20.7-0.7,37.8,15.4,38.5,36.1c0,0.4,0,0.8,0,1.1C292.5,180.2,276.2,196.9,256,197.3L256,197.3z"/>
</svg>
