<svg xmlns="http://www.w3.org/2000/svg" viewBox="0 0 512 512">
<path fill="#527C00" d="M400,0H112C85.5,0,64,21.5,64,48v416c0,26.5,21.5,48,48,48h288c26.5,0,48-21.5,48-48V48
	C448,21.5,426.5,0,400,0z"/>
<rect x="112" y="48" fill="#FFFFFF" width="288" height="416"/>
<g>
	<path fill="#5E5E5E" d="M340,395.834H172c-6.6,0-12,5.4-12,12v12c0,6.6,5.4,12,12,12h168c6.6,0,12-5.4,12-12v-12
		C352,401.234,346.6,395.834,340,395.834z"/>
	<path fill="#5E5E5E" d="M340,327.834H172c-6.6,0-12,5.4-12,12v12c0,6.6,5.4,12,12,12h168c6.6,0,12-5.4,12-12v-12
		C352,333.234,346.6,327.834,340,327.834z"/>
</g>
<g>
	<path fill="#5E5E5E" d="M512,183.667v152c0,13.301-10.699,24-24,24h-40v-64H64v64H24c-13.3,0-24-10.699-24-24v-152
		c0-13.299,10.7-24,24-24h464C501.301,159.667,512,170.368,512,183.667z"/>
	<path fill="#FFFFFF" d="M447.871,227.667c0-11-9-20-20-20s-20,9-20,20c0,10.999,9,19.999,20,19.999
		S447.871,238.667,447.871,227.667z"/>
</g>
</svg>
