<?xml version="1.0" encoding="utf-8"?>
<!-- Generator: Adobe Illustrator 24.1.2, SVG Export Plug-In . SVG Version: 6.00 Build 0)  -->
<svg version="1.1" id="Layer_1" xmlns="http://www.w3.org/2000/svg" xmlns:xlink="http://www.w3.org/1999/xlink" x="0px" y="0px"
	 viewBox="0 0 512 512" style="enable-background:new 0 0 512 512;" xml:space="preserve">
<style type="text/css">
	.st0{fill:#FFFFFF;}
</style>
<path class="st0" d="M333.9,319.7c7.8-7.8,20.5-7.8,28.3,0l0,0l135.7,135.7c7.8,7.8,7.8,20.5,0,28.3l-14.1,14.1
	c-7.8,7.8-20.5,7.8-28.3,0l0,0L319.7,362.1l0,0c-7.8-7.8-7.8-20.5,0-28.3L333.9,319.7z"/>
<path class="st0" d="M348,348c-77.2,77.2-202.8,77.2-280,0S-9.2,145.2,68,68s202.8-77.2,280,0S425.2,270.8,348,348z M110.4,110.4
	c-53.8,53.8-53.8,141.3,0,195.1s141.3,53.8,195.1,0s53.8-141.3,0-195.1S164.2,56.6,110.4,110.4z"/>
</svg>
