<svg xmlns="http://www.w3.org/2000/svg" viewBox="0 0 512 512">
<path fill="#404040" d="M256,311.498c73.999,0,134.502-60.498,134.502-134.998c0-75-60.503-135.5-134.502-135.5
	s-134.5,60.5-134.5,135C121.5,251,182.001,311.498,256,311.498z M256,81c52.002,0,94.502,42.5,94.502,95s-42.5,95-94.502,95
	c-52,0-94.5-42.5-94.5-95S204,81,256,81z M318.5,324.501c-6.499-2.002-13.999-0.503-18.999,3.999L256,365.502L212.499,328.5
	c-5.498-4.502-12.5-6.001-18.999-3.999C165.5,333.5,26,381.498,26,451c0,11.001,8.999,20,20,20h420c11.001,0,20-8.999,20-20
	C486,381.498,346.498,333.5,318.5,324.501z M76.5,431c22-23.501,75-49.502,118.999-64.502L243,407.001
	c7.5,6.499,18.499,6.499,25.999,0l47.5-40.503C360.502,382.001,413.5,408.002,435.502,431H76.5z"/>
</svg>
