<svg xmlns="http://www.w3.org/2000/svg" viewBox="0 0 512 512">
<g>
	<path fill="#D13530" d="M120.296,391.704c-6.246-6.246-6.246-16.373,0-22.619l248.788-248.789c6.246-6.246,16.373-6.246,22.618,0
		c6.247,6.247,6.246,16.374,0,22.619l-248.787,248.79C136.67,397.95,126.543,397.95,120.296,391.704z"/>
	<path fill="#D13530" d="M120.296,120.296c6.246-6.246,16.374-6.246,22.621,0l248.785,248.788c6.247,6.246,6.248,16.375,0,22.619
		c-6.246,6.246-16.372,6.246-22.618,0L120.296,142.915C114.05,136.67,114.051,126.542,120.296,120.296z"/>
</g>
<path fill="#D13530" d="M257.188,9.25c-136.957,0-248,111.013-248,248c0,136.957,111.043,248,248,248s248-111.043,248-248
	C505.188,120.263,394.145,9.25,257.188,9.25z M257.188,473.25c-119.103,0-216-96.896-216-216c0-57.702,22.47-111.947,63.269-152.742
	C145.25,63.715,199.493,41.25,257.188,41.25c57.695,0,111.938,22.465,152.732,63.258c40.799,40.795,63.268,95.04,63.268,152.742
	C473.188,376.354,376.289,473.25,257.188,473.25z"/>
</svg>
