<svg xmlns="http://www.w3.org/2000/svg" viewBox="0 0 512 512">
<path fill="#D13530" d="M256,8C119,8,8,119,8,256c0,137,111,248,248,248s248-111,248-248C504,119,393,8,256,8z M256,472
	c-119.1,0-216-96.9-216-216c0-57.7,22.5-111.9,63.3-152.7C144.1,62.5,198.3,40,256,40s111.9,22.5,152.7,63.3
	c40.8,40.8,63.3,95,63.3,152.7C472,375.1,375.1,472,256,472z"/>
<g>
	<path fill="#D13530" d="M256,121.2c8.8,0,16,7.2,16,16v131.6c0,8.8-7.2,16-16,16c-8.8,0-16-7.2-16-16V137.2
		C240,128.4,247.2,121.2,256,121.2z"/>
	<circle fill="#D13530" cx="256" cy="356.8" r="34"/>
</g>
</svg>
