<svg xmlns="http://www.w3.org/2000/svg" viewBox="0 0 512 512">
<g>
	<path fill="#ffffff" d="M464,494.5h-81.9c-11,0-20-9-20-20v-56.1H326v56.1c0,11-9,20-20,20h-79c-11,0-20-9-20-20v-345
		c0-8.3,5.1-15.7,12.8-18.6l237-92c6.2-2.4,13.1-1.6,18.5,2.1c5.4,3.7,8.7,9.9,8.7,16.5v437C484,485.5,475,494.5,464,494.5z
		 M402.1,454.5H444V66.7l-197,76.5v311.3h39v-56.1c0-11,9-20,20-20h76.1c11,0,20,9,20,20V454.5z"/>
	<path fill="#ffffff" d="M227,494.5H48c-11,0-20-9-20-20v-191c0-9.1,6.1-17,14.8-19.3l179-48c6-1.6,12.4-0.3,17.4,3.4
		c4.9,3.8,7.8,9.6,7.8,15.9v239C247,485.5,238,494.5,227,494.5z M68,454.5h139V261.6L68,298.8V454.5z"/>
	<path fill="#ffffff" d="M158.1,422.9h-41.2c-11,0-20-9-20-20s9-20,20-20h41.2c11,0,20,9,20,20S169.2,422.9,158.1,422.9z"/>
	<path fill="#ffffff" d="M158.1,356.2h-41.2c-11,0-20-9-20-20s9-20,20-20h41.2c11,0,20,9,20,20S169.2,356.2,158.1,356.2z"/>
	<path fill="#ffffff" d="M393.7,272.5h-96.3c-11,0-20-9-20-20s9-20,20-20h96.3c11,0,20,9,20,20S404.7,272.5,393.7,272.5z"/>
	<path fill="#ffffff" d="M393.7,205.9h-96.3c-11,0-20-9-20-20s9-20,20-20h96.3c11,0,20,9,20,20S404.7,205.9,393.7,205.9z"/>
	<path fill="#ffffff" d="M393.7,339.2h-96.3c-11,0-20-9-20-20s9-20,20-20h96.3c11,0,20,9,20,20S404.7,339.2,393.7,339.2z"/>
</g>
</svg>
