<svg xmlns="http://www.w3.org/2000/svg" viewBox="0 0 512 512">
<path fill="#FFFFFF" d="M396.8,440.3H126.9c-69.3,0-125.6-56.3-125.6-125.6c0-48.4,27.8-92.1,70.6-113c3.8-72.3,63.9-130,137.1-130
	c42.5,0,82.5,19.9,108.3,53c10.3-4,21.3-6,32.5-6c49.8,0,90.4,40.6,90.4,90.4c0,4-0.3,7.9-0.8,11.8c42.2,17.1,71.2,58.7,71.2,105.6
	C510.7,389.2,459.6,440.3,396.8,440.3z M209.1,111.7c-53.7,0-97.3,43.7-97.3,97.3c0,1.3,0.1,2.8,0.1,4.3l0.5,15.6l-13.8,4.9
	c-34.2,12-57.2,44.5-57.2,80.8c0,47.2,38.4,85.6,85.6,85.6h269.9c40.7,0,73.9-33.1,73.9-73.9c0-35-24.8-65.4-59.1-72.4l-23.2-4.7
	l8.5-22.1c2.2-5.8,3.4-12,3.4-18.2c0-27.8-22.6-50.4-50.4-50.4c-10,0-19.7,2.9-27.9,8.5l-17.8,11.9l-10.7-18.5
	C276.1,130.4,243.7,111.7,209.1,111.7z"/>
</svg>
