<svg xmlns="http://www.w3.org/2000/svg" viewBox="0 0 512 512">
<path fill="#FFFFFF" d="M492.6,125.3c0-25.1-19.4-47.3-54.5-62.4C408.3,50.1,369.1,43,327.8,43s-80.5,7.1-110.3,19.9
	C182.4,78,163,100.2,163,125.3c0,1.8,0.1,3.9,0.4,6c-33.5,2-64.7,8.6-89.5,19.3c-35.1,15.1-54.5,37.3-54.5,62.4v173.6
	c0,25.1,19.4,47.3,54.5,62.4c29.8,12.8,69,19.9,110.3,19.9s80.5-7.1,110.3-19.9c35.1-15.1,54.5-37.3,54.5-62.4v-6.1
	c33.6-2,64.8-8.7,89.5-19.4c34.9-15.1,54.1-37.2,54.1-62.2V125.3L492.6,125.3C492.6,125.3,492.6,125.3,492.6,125.3z M327.8,83
	c80.7,0,124.8,27.9,124.8,42.3s-44,42.3-124.8,42.3c-1.3,0-2.7,0-4,0c-8-6.3-17.8-12-29.3-17c-24.7-10.6-55.8-17.3-89.3-19.2
	c-1.3-1.9-2.2-4-2.2-6C203,111,247.1,83,327.8,83z M184.2,170.7c80.7,0,124.8,27.9,124.8,42.3s-44,42.3-124.8,42.3
	c-80.7,0-124.8-27.9-124.8-42.3S103.5,170.7,184.2,170.7z M59.4,268.3c4.5,2.5,9.3,4.9,14.5,7.1c29.8,12.8,69,19.9,110.3,19.9
	s80.5-7.1,110.3-19.9c5.2-2.2,10-4.6,14.5-7.1v30.3c0,14.4-44,42.3-124.8,42.3c-80.7,0-124.8-27.9-124.8-42.3V268.3z M184.2,429
	c-80.7,0-124.8-27.9-124.8-42.3v-32.8c4.5,2.5,9.3,4.9,14.5,7.1c29.8,12.8,69,19.9,110.3,19.9s80.5-7.1,110.3-19.9
	c5.2-2.2,10-4.6,14.5-7.1v32.8C309,401,264.9,429,184.2,429z M349,340.6v-48c33.6-2,64.8-8.7,89.5-19.4c5-2.2,9.7-4.5,14.1-7V299
	C452.6,311.9,416.2,336.2,349,340.6z M349,252.5V213c0-2-0.1-4-0.4-6c33.5-2,64.7-8.6,89.5-19.3c5.2-2.2,10-4.6,14.5-7.1v30.3
	C452.6,223.9,416.2,248.2,349,252.5z"/>
</svg>
