<svg xmlns="http://www.w3.org/2000/svg" viewBox="0 0 512 512">
<g>
	<path fill="#222d32" d="M263.2,393.7l69.4,69.4c7.8,7.8,20.5,7.8,28.3,0c7.8-7.8,7.8-20.5,0-28.3l-69.4-69.4c-7.8-7.8-20.5-7.8-28.3,0
		C255.5,373.1,255.4,385.8,263.2,393.7z"/>
	<path fill="#222d32" d="M458.5,308.8L332.5,434.8c-7.8,7.8-7.8,20.5,0,28.3s20.5,7.8,28.3,0l125.9-125.9c7.8-7.8,7.8-20.5,0-28.3
		C479,301,466.3,300.9,458.5,308.8z"/>
</g>
<path fill="#222d32" d="M237.5,424.5c-15.4,2.8-33.2,4.5-53.3,4.5c-80.7,0-124.8-27.9-124.8-42.3v-32.8c4.5,2.5,9.3,4.9,14.5,7.1
	c29.8,12.8,69,19.9,110.3,19.9c11.3,0,22.4-0.6,33.3-1.6c0-15.3,5.9-30.6,17.5-42.2c0.1-0.1,0.2-0.2,0.4-0.3
	c-14.9,2.6-32,4.1-51.1,4.1c-80.7,0-124.8-27.9-124.8-42.3v-30.3c4.5,2.5,9.3,4.9,14.5,7.1c29.8,12.8,69,19.9,110.3,19.9
	c41.3,0,80.5-7.1,110.3-19.9c5.2-2.2,10-4.6,14.5-7.1v30.3c0,5.9-7.4,14.1-21.8,21.7c12.3,2,23.7,7.8,32.7,16.8l29.3,29.3l-0.1-25.8
	v-48c33.6-2,64.8-8.7,89.5-19.4c0.6-0.2,1.1-0.5,1.6-0.7c3.7-2.4,7.7-4.4,11.8-5.9c0.2-0.1,0.4-0.2,0.6-0.3v0.1
	c6.3-2.2,13-3.4,20-3.4c6.9,0,13.7,1.2,20,3.4v-141c0-25.1-19.4-47.3-54.5-62.4C408.3,50.1,369.1,43,327.8,43
	c-41.3,0-80.5,7.1-110.3,19.9C182.4,78,163,100.2,163,125.3c0,1.8,0.1,3.9,0.4,6c-33.5,2-64.7,8.6-89.5,19.3
	c-35.1,15.1-54.5,37.3-54.5,62.4v173.6c0,25.1,19.4,47.3,54.5,62.4c29.8,12.8,69,19.9,110.3,19.9c31,0,60.8-4,86.3-11.4L237.5,424.5
	z M452.6,210.9c0,13-36.4,37.3-103.6,41.6V213c0-2-0.1-4-0.4-6c33.5-2,64.7-8.6,89.5-19.3c5.2-2.2,10-4.6,14.5-7.1V210.9z M327.8,83
	c80.7,0,124.8,27.9,124.8,42.3c0,14.4-44,42.3-124.8,42.3c-1.3,0-2.7,0-4,0c-8-6.3-17.8-12-29.3-17c-24.7-10.6-55.8-17.3-89.3-19.2
	c-1.3-1.9-2.2-4-2.2-6C203,111,247.1,83,327.8,83z M184.2,170.7c80.7,0,124.8,27.9,124.8,42.3c0,14.4-44,42.3-124.8,42.3
	c-80.7,0-124.8-27.9-124.8-42.3C59.4,198.6,103.5,170.7,184.2,170.7z"/>
</svg>
