<svg xmlns="http://www.w3.org/2000/svg" viewBox="0 0 512 512">
<path fill="#FFFFFF" d="M466,271.063c-5,0-10-2.002-13.999-5.498L256,74.063L59.999,265.564
	c-7.998,7.5-20.498,7.5-28.499-0.503c-7.5-7.998-7.5-20.498,0.5-28.499l210-205c7.998-7.5,20-7.5,27.999,0l210,205
	c8.003,7.5,8.003,20.5,0.503,28.499C476.498,269.062,471,271.063,466,271.063z M422.001,466.063V270.564
	c0-11.001-8.999-20.002-20-20.002s-20,9.001-20,20.002v175.498h-62.5V339.062c0-14.497-12.002-26.499-26.499-26.499H219
	c-14.5,0-26.501,12.002-26.501,26.499v107.002H130V270.564c0-11.001-8.999-20.002-20-20.002c-10.999,0-20,9.001-20,20.002v195.498
	c0,11,9.001,20,20,20h102.5c11.001,0,20-9,20-20v-113.5H280v113.501c0,11.001,8.999,19.999,20,19.999h102.5
	C413.5,486.063,422.001,477.063,422.001,466.063z"/>
</svg>
