<?xml version="1.0" encoding="utf-8"?>
<!-- Generator: Adobe Illustrator 24.1.2, SVG Export Plug-In . SVG Version: 6.00 Build 0)  -->
<svg version="1.1" id="Layer_1" xmlns="http://www.w3.org/2000/svg" xmlns:xlink="http://www.w3.org/1999/xlink" x="0px" y="0px"
	 viewBox="0 0 512 512" style="enable-background:new 0 0 512 512;" xml:space="preserve">
<style type="text/css">
	.st0{fill:#222D32;}
</style>
<g>
	<path class="st0" d="M410.7,239.9c-11,0-20-9-20-20c0-74.3-60.4-134.7-134.7-134.7s-134.7,60.4-134.7,134.7c0,11-9,20-20,20
		s-20-9-20-20c0-96.3,78.4-174.7,174.7-174.7c46.7,0,90.6,18.2,123.6,51.1s51.1,76.9,51.1,123.6
		C430.7,230.9,421.7,239.9,410.7,239.9z"/>
	<path class="st0" d="M448,239.9H64c-11,0-20-9-20-20s9-20,20-20h384c11,0,20,9,20,20S459,239.9,448,239.9z"/>
	<path class="st0" d="M429.6,367.9H82.4c-11,0-20-9-20-20s9-20,20-20h347.2c11,0,20,9,20,20S440.6,367.9,429.6,367.9z"/>
	<path class="st0" d="M490.6,512H21.4c-11,0-20-9-20-20s9-20,20-20h469.2c11,0,20,9,20,20S501.6,512,490.6,512z"/>
	<path class="st0" d="M256,85.2c-11,0-20-9-20-20v-43c0-11,9-20,20-20s20,9,20,20v43C276,76.2,267,85.2,256,85.2z"/>
	<g>
		<path class="st0" d="M101.3,367.9c-11,0-20-9-20-20v-128c0-11,9-20,20-20s20,9,20,20v128C121.3,358.9,112.3,367.9,101.3,367.9z"/>
		<path class="st0" d="M204.4,367.9c-11,0-20-9-20-20v-128c0-11,9-20,20-20s20,9,20,20v128C224.4,358.9,215.4,367.9,204.4,367.9z"/>
		<path class="st0" d="M307.6,367.9c-11,0-20-9-20-20v-128c0-11,9-20,20-20s20,9,20,20v128C327.6,358.9,318.6,367.9,307.6,367.9z"/>
		<path class="st0" d="M410.7,367.9c-11,0-20-9-20-20v-128c0-11,9-20,20-20s20,9,20,20v128C430.7,358.9,421.7,367.9,410.7,367.9z"/>
	</g>
	<path class="st0" d="M458,445.9H54c-11,0-20-9-20-20s9-20,20-20h404c11,0,20,9,20,20S469,445.9,458,445.9z"/>
</g>
</svg>
