<svg xmlns="http://www.w3.org/2000/svg" viewBox="0 0 512 512">
<g>
	<g>
		<g>
			<path fill="#222d32" d="M302.5,429.8c-10.3,0-19.8-6.6-23.1-16.9l-90.8-282.1h-3.5L94.3,412.9c-4.1,12.8-17.8,19.8-30.6,15.7
				C50.9,424.5,43.9,410.8,48,398l96.2-298.9c3.2-10.1,12.6-16.9,23.2-16.9h38.9c10.6,0,19.9,6.8,23.2,16.9L325.7,398
				c4.1,12.8-2.9,26.5-15.7,30.6C307.5,429.4,305,429.8,302.5,429.8z"/>
		</g>
		<path fill="#222d32" d="M272.5,336.5H101.2c-13.4,0-24.3-10.9-24.3-24.3c0-13.4,10.9-24.3,24.3-24.3h171.3
			c13.4,0,24.3,10.9,24.3,24.3C296.8,325.7,286,336.5,272.5,336.5z"/>
	</g>
	<path fill="#222d32" d="M459.3,241.8c-0.3-0.3-0.7-0.6-1-0.9l-50-50c-2.8-2.8-6.3-4.6-9.9-5.3c-0.1,0-0.2-0.1-0.3-0.1
		c-0.5-0.1-1-0.2-1.5-0.2c-0.2,0-0.3-0.1-0.5-0.1c-0.6-0.1-1.1-0.1-1.7-0.1c-0.1,0-0.2,0-0.3,0c0,0,0,0,0,0c-0.7,0-1.3,0-2,0.1
		c-0.3,0-0.6,0.1-0.9,0.1c-0.4,0.1-0.7,0.1-1,0.2c-0.3,0.1-0.6,0.1-0.9,0.2c-0.4,0.1-0.7,0.2-1.1,0.3c-0.2,0.1-0.4,0.1-0.6,0.2
		c-0.4,0.1-0.8,0.3-1.2,0.5c-0.1,0-0.2,0.1-0.3,0.2c-0.5,0.2-1,0.4-1.5,0.7c0,0,0,0,0,0c-1.6,0.9-3.2,2-4.5,3.4
		c-0.4,0.4-0.7,0.8-1.1,1.2c-0.1,0.1-0.2,0.2-0.3,0.3c-0.1,0.2-0.3,0.4-0.4,0.5c-0.3,0.4-0.6,0.7-0.8,1.1c0,0.1-0.1,0.1-0.1,0.2
		c-2,3.1-3.2,6.9-3.2,10.9v101.8c0,7.7,4.3,14.4,10.7,17.7c0.1,0,0.1,0,0.2,0.1c0.5,0.3,1.1,0.5,1.6,0.7c0.1,0,0.1,0.1,0.2,0.1
		c0.5,0.2,1.1,0.4,1.6,0.6c0.1,0,0.2,0,0.3,0.1c0.5,0.1,1.1,0.3,1.6,0.4c0.1,0,0.3,0,0.4,0.1c0.5,0.1,1,0.2,1.5,0.2
		c0.4,0,0.8,0,1.3,0.1c0.2,0,0.4,0,0.6,0c0,0,0,0,0,0c0.7,0,1.3,0,2-0.1c0,0,0,0,0.1,0c0.6-0.1,1.3-0.2,1.9-0.3c0,0,0,0,0,0
		c3.7-0.8,7.3-2.6,10.2-5.4l50-49.9c0.4-0.3,0.7-0.6,1-0.9c3.9-3.9,5.9-9.1,5.8-14.2C465.2,250.8,463.2,245.7,459.3,241.8z"/>
</g>
</svg>
