<svg xmlns="http://www.w3.org/2000/svg" viewBox="0 0 512 512">
	<path fill="#FFFFFF" d="M164.7,116c0,11,9,20,20,20h274.7c11,0,20-9,20-20s-9-20-20-20H184.7C173.6,96,164.7,105,164.7,116z"/>
	<circle fill="#FFFFFF" cx="62.7" cy="116" r="30"/>
	<path fill="#FFFFFF" d="M164.7,256c0,11,9,20,20,20h274.7c11,0,20-9,20-20s-9-20-20-20H184.7C173.6,236,164.7,245,164.7,256z"/>
	<circle fill="#FFFFFF" cx="62.7" cy="256" r="30"/>
	<path fill="#FFFFFF" d="M164.7,396c0,11,9,20,20,20h274.7c11,0,20-9,20-20s-9-20-20-20H184.7C173.6,376,164.7,385,164.7,396z"/>
	<circle fill="#FFFFFF" cx="62.7" cy="396" r="30"/>
</svg>
