<svg xmlns="http://www.w3.org/2000/svg" viewBox="0 0 512 512">
<path fill="#FFFFFF" d="M333.5,183.1h-155c-11,0-20-9-20-20v-120c0-11,9-20,20-20h155c11,0,20,9,20,20v120
	C353.5,174.1,344.5,183.1,333.5,183.1z M198.5,143.1h115v-80h-115V143.1z"/>
<path fill="#FFFFFF" d="M491.9,276H20.1c-11,0-20-9-20-20s9-20,20-20h471.8c11,0,20,9,20,20S502.9,276,491.9,276z"/>
<path fill="#FFFFFF" d="M256,266c-11,0-20-9-20-20v-72.9c0-11,9-20,20-20s20,9,20,20V246C276,257,267,266,256,266z"/>
<path fill="#FFFFFF" d="M175,488.9H20c-11,0-20-9-20-20v-120c0-11,9-20,20-20h155c11,0,20,9,20,20v120
	C195,479.9,186,488.9,175,488.9z M40,448.9h115v-80H40V448.9z"/>
<path fill="#FFFFFF" d="M97.5,358.9c-11,0-20-9-20-20V266c0-11,9-20,20-20s20,9,20,20v72.9C117.5,349.9,108.5,358.9,97.5,358.9z"/>
<path fill="#FFFFFF" d="M492,488.9H337c-11,0-20-9-20-20v-120c0-11,9-20,20-20h155c11,0,20,9,20,20v120
	C512,479.9,503,488.9,492,488.9z M357,448.9h115v-80H357V448.9z"/>
<path fill="#FFFFFF" d="M414.5,358.9c-11,0-20-9-20-20V266c0-11,9-20,20-20s20,9,20,20v72.9C434.5,349.9,425.5,358.9,414.5,358.9z"
	/>
</svg>
