<svg xmlns="http://www.w3.org/2000/svg" viewBox="0 0 512 512">
<g>
	<path fill="#FFFFFF" d="M159.1,418.6c-25.6,0-50-15.1-60.5-40.2c-6.8-16.1-6.9-33.9-0.3-50.1c6.6-16.3,19.2-29,35.3-35.8
		c33.3-14,71.9,1.7,85.9,35.1c6.8,16.1,6.8,33.9,0.2,50.2c-6.6,16.3-19.2,28.9-35.2,35.7C176.1,416.9,167.5,418.6,159.1,418.6z
		 M159,321.4c-4.1,0-8.2,0.8-12.2,2.5c-7.8,3.3-13.8,9.4-17,17.2c-3.2,7.8-3.1,16.4,0.1,24.1c6.7,16.1,25.3,23.6,41.3,16.9l0,0
		c7.7-3.2,13.7-9.3,16.9-17.2c3.2-7.9,3.2-16.4,0-24.1C183,328.7,171.3,321.4,159,321.4z"/>
	<path fill="#FFFFFF" d="M192.5,508.5c-5.5,0-10.8-2.6-14.2-7.2c-0.4-0.5-0.7-1-1-1.5l-10.4-17.5c-5.6,0.3-11.1,0.3-16.6-0.1
		l-9.9,17.3c-0.2,0.3-0.3,0.5-0.5,0.8c-1.9,3-4.8,5.4-8.2,6.7c-2.5,1-5.4,1.4-8.2,1.2c-1.2-0.1-2.4-0.3-3.5-0.7l-0.5-0.2
		c-3.1-0.9-11.2-3.4-20.2-6.8c-0.1,0-0.2-0.1-0.3-0.1l-1.6-0.7c-9.4-3.8-17.2-8.1-19.7-9.5l-0.7-0.4c-0.5-0.3-1-0.6-1.5-0.9
		c-1.7-1.2-3.2-2.6-4.4-4.2c-2.2-3-3.3-6.7-3.2-10.4c0-1.4,0.2-2.7,0.6-4.1l5.2-20.1c-4.5-3.9-8.5-8.2-11.9-12l-19.5,5.1
		c-3.6,0.9-7.5,0.7-10.9-0.8c-3.5-1.5-6.5-4.2-8.5-7.6l-0.9-1.5c-0.5-0.7-1-1.4-1.4-2.1c-1.3-2.3-4.7-8.6-8.1-16.6l-0.6-1.5
		c-3.8-9-6.3-17.2-7.2-20.3c-0.1-0.4-0.2-0.7-0.3-1c-0.4-1.2-0.6-2.4-0.7-3.7c-0.5-6.1,2.1-12,7.1-15.7c0.5-0.4,1-0.7,1.5-1
		L29.8,361c-0.3-5.6-0.3-11.1,0.1-16.6l-17.3-9.9c-0.3-0.2-0.5-0.3-0.8-0.5c-2.4-1.6-4.5-3.8-5.9-6.3c-1.6-3-2.3-6.5-2-10
		c0.1-1.2,0.3-2.4,0.7-3.5l0.2-0.6c0.9-3.1,3.4-11.2,6.8-20.2c0-0.1,0.1-0.2,0.1-0.3l0.7-1.6c3.8-9.4,8.1-17.1,9.5-19.7l0.3-0.6
		c0.3-0.6,0.6-1.1,1-1.6c1.1-1.6,2.5-3,4-4.2c3.1-2.3,6.8-3.4,10.6-3.3c1.3,0,2.7,0.2,4,0.6l20.1,5.2c3.9-4.5,8.2-8.5,12-11.9
		l-5.1-19.5c-1-3.7-0.7-7.5,0.8-11s4.2-6.5,7.5-8.4l1.5-0.9c0.7-0.5,1.4-1,2.1-1.4c2.3-1.3,8.6-4.7,16.6-8.1l1.5-0.6
		c8.9-3.8,17.2-6.3,20.3-7.2c0.4-0.1,0.7-0.2,1-0.3c1.2-0.4,2.4-0.6,3.6-0.7c6.1-0.5,12,2.1,15.8,7.1c0.4,0.5,0.7,1,1,1.5l10.4,17.5
		c5.6-0.3,11.1-0.3,16.6,0.1l9.9-17.3c0.1-0.2,0.3-0.4,0.4-0.7c2-3.1,4.9-5.5,8.3-6.8c2.5-1,5.3-1.4,8.1-1.1
		c1.2,0.1,2.4,0.3,3.6,0.7l0.4,0.1c3.1,0.9,11.3,3.4,20.2,6.8c0.1,0,0.2,0.1,0.3,0.1l1.6,0.7c9.4,3.8,17.1,8.1,19.7,9.5
		c0.3,0.2,0.5,0.3,0.6,0.4c0.6,0.3,1.2,0.7,1.7,1c1.7,1.1,3.1,2.5,4.2,4.1c2.2,3,3.3,6.7,3.2,10.4c0,1.3-0.2,2.6-0.5,3.9l-4.9,20.1
		c4.5,3.9,8.5,8.2,11.9,12l19.5-5.1c3.6-0.9,7.5-0.7,10.9,0.8c3.1,1.3,5.8,3.5,7.7,6.4c0.3,0.5,0.6,1,0.9,1.5l0.2,0.3
		c3.9,7,7.2,13.7,9.8,20l0.6,1.5c3.8,9,6.3,17.2,7.2,20.3v0.1c0.1,0.4,0.2,0.7,0.3,0.9c0.4,1.2,0.6,2.4,0.7,3.6
		c0.5,6.1-2.1,12-7.2,15.8c-0.5,0.4-1,0.7-1.5,1l-17.5,10.4c0.3,5.6,0.3,11.2-0.1,16.7l17.5,10.2c1.4,0.8,2.6,1.8,3.7,2.9
		c3.5,3.6,5.2,8.6,4.8,13.8c-0.1,1.2-0.3,2.4-0.7,3.6l-0.2,0.5c-0.9,3.1-3.4,11.3-6.8,20.2c0,0.1-0.1,0.2-0.1,0.3l-0.7,1.6
		c-3.8,9.4-8.1,17.1-9.5,19.7l-0.3,0.6c-0.3,0.6-0.7,1.2-1.1,1.8c-1.2,1.7-2.6,3.1-4.3,4.3c-3,2.1-6.6,3.2-10.3,3.1
		c-1.4,0-2.7-0.2-4.1-0.6l-20.2-5.4c-3.9,4.5-8.2,8.5-12,11.8l5.1,19.5c1,3.6,0.7,7.5-0.8,11c-1.3,3.1-3.6,5.8-6.5,7.8
		c-0.4,0.3-0.9,0.6-1.4,0.8l-0.4,0.2c-6.8,3.8-13.4,7-19.7,9.7l-1.5,0.6l0,0c-8.9,3.8-17.2,6.3-20.3,7.2c-0.4,0.1-0.7,0.2-1,0.3
		c-1.2,0.4-2.5,0.6-3.8,0.7C193.5,508.5,193,508.5,192.5,508.5z M212.5,484.6L212.5,484.6L212.5,484.6z M176.1,447.5
		c6,0,11.5,3.1,14.6,8.3l9.2,15.5c1.9-0.7,3.9-1.5,6-2.4l1.5-0.6c1.8-0.8,3.7-1.6,5.6-2.5l-4.4-16.9c-1.7-6.3,0.5-13,5.4-17.2
		l5.4-4.6c3.9-3.3,8.9-7.8,12.5-12.3l4.6-5.8c4.2-5.3,11.2-7.6,17.7-5.9l17.8,4.8c0.8-1.7,1.6-3.5,2.3-5.4l0.6-1.5
		c0.8-2.1,1.5-4.1,2.2-6l-15.5-9c-5.8-3.4-9.1-9.8-8.4-16.5l0.8-7.3c0.6-5.7,0.6-11.5,0.1-17.3l-0.6-7.1c-0.6-6.5,2.6-12.8,8.3-16.1
		l15.5-9.2c-0.7-1.9-1.5-3.9-2.4-6l-0.6-1.5c-0.8-1.9-1.7-3.9-2.7-5.9l-16.8,4.4c-6.3,1.6-13-0.5-17.2-5.4l-4.6-5.4
		c-3.3-3.9-7.8-8.9-12.3-12.5l-5.7-4.5c-5.2-4.1-7.5-10.9-5.9-17.4l4.4-17.9c-1.8-0.8-3.7-1.7-5.6-2.5l-1.5-0.6
		c-2-0.8-4-1.5-5.9-2.1l-8.7,15.2c-3.3,5.9-9.8,9.2-16.6,8.5l-7.4-0.8c-5.7-0.6-11.5-0.6-17.3-0.1l-7.1,0.6
		c-6.5,0.6-12.8-2.6-16.1-8.3l-9.2-15.5c-1.9,0.7-3.9,1.5-6,2.4l-1.5,0.6c-2,0.8-3.9,1.7-5.6,2.5l4.5,17.2c1.7,6.3-0.5,13-5.4,17.2
		l-5.4,4.6c-3.9,3.4-8.9,7.8-12.5,12.3l-4.6,5.8c-4.2,5.3-11,7.6-17.6,5.9l-17.9-4.6c-0.8,1.7-1.6,3.6-2.4,5.5l-0.6,1.5
		c-0.8,2-1.5,4-2.1,5.9l15.2,8.7c5.9,3.3,9.2,9.8,8.5,16.5l-0.8,7.4c-0.6,5.7-0.6,11.5-0.1,17.3l0.6,7.1c0.6,6.5-2.6,12.8-8.3,16.1
		l-15.5,9.2c0.7,1.9,1.5,3.9,2.4,6l0.6,1.5c0.8,2,1.7,3.9,2.5,5.6l17.2-4.5c6.3-1.6,13,0.5,17.2,5.4l4.6,5.4
		c3.4,3.9,7.8,8.9,12.3,12.5l5.8,4.6c5.3,4.2,7.6,11,5.9,17.5l-4.6,17.9c1.7,0.8,3.6,1.6,5.5,2.4l1.5,0.6c2,0.8,4,1.5,5.9,2.1
		l8.7-15.2c3.3-5.9,9.8-9.2,16.5-8.5l7.4,0.8c5.7,0.6,11.5,0.6,17.3,0.1l7.1-0.6C175.1,447.5,175.6,447.5,176.1,447.5z M94.1,246.2
		L94.1,246.2L94.1,246.2z"/>
</g>
<g>
	<path fill="#FFFFFF" d="M414.9,286.7c-20,0-36.2-16.2-36.2-36.2s16.2-36.2,36.2-36.2c20,0,36.2,16.2,36.2,36.2
		S434.9,286.7,414.9,286.7z M414.9,236c-8,0-14.5,6.5-14.5,14.5s6.5,14.5,14.5,14.5s14.5-6.5,14.5-14.5S422.9,236,414.9,236z"/>
	<path fill="#FFFFFF" d="M414.9,347.7h-1c-6,0-11.2-0.5-13.1-0.7l-0.5-0.1c-1-0.1-1.9-0.3-2.8-0.6c-4.3-1.4-7.5-4.8-8.6-9.3
		c-0.1-0.4-0.2-0.9-0.3-1.3l-1.5-10.5c-2.2-0.8-4.4-1.8-6.5-2.8l-8.2,6.2c-0.1,0.1-0.4,0.3-0.5,0.4c-2.2,1.5-4.8,2.3-7.5,2.2
		c-2-0.1-4-0.6-5.9-1.5c-0.8-0.4-1.6-0.9-2.2-1.5L356,328c-1.5-1.3-5.5-4.5-9.7-8.6c-0.1-0.1-0.1-0.1-0.1-0.1l-0.7-0.7
		c-4.4-4.4-7.7-8.6-8.9-10l-0.2-0.3c-0.3-0.4-0.6-0.7-0.8-1.2c-0.8-1.3-1.4-2.7-1.7-4.2c-0.6-2.8-0.3-5.6,0.9-8.1
		c0.4-0.9,0.9-1.7,1.5-2.5l6.5-8.6c-1-2.3-1.9-4.6-2.7-6.8l-10.4-1.5c-2.8-0.4-5.4-1.7-7.3-3.7c-1.9-2-3.2-4.7-3.6-7.5l-0.1-0.9
		c-0.1-0.5-0.2-1.1-0.3-1.7c-0.2-1.6-0.6-6-0.6-11.3v-1c0-6,0.5-11.2,0.7-13.1c0-0.2,0.1-0.4,0.1-0.6c0.1-0.9,0.3-1.8,0.5-2.7
		c1.3-4.3,4.8-7.6,9.4-8.7c0.4-0.1,0.9-0.2,1.3-0.3l10.5-1.5c0.8-2.2,1.8-4.4,2.8-6.5l-6.2-8.2c-0.1-0.1-0.2-0.3-0.4-0.4
		c-1.2-1.7-2-3.8-2.2-5.9c-0.3-2.6,0.2-5.2,1.5-7.6c0.4-0.7,0.9-1.5,1.4-2.2l0.2-0.3c1.3-1.6,4.5-5.5,8.6-9.7
		c0.1-0.1,0.1-0.1,0.1-0.2l0.7-0.7c4.4-4.4,8.6-7.7,10-8.9l0.3-0.2c0.4-0.3,0.8-0.6,1.2-0.9c1.5-1,3.1-1.6,4.8-1.9
		c2.5-0.4,5.1-0.1,7.4,1c0.9,0.4,1.8,1,2.6,1.6l8.6,6.5c2.3-1,4.6-1.9,6.8-2.7l1.5-10.4c0.4-2.8,1.8-5.4,3.8-7.4
		c2-1.9,4.6-3.1,7.4-3.5l0.9-0.1c0.5-0.1,1.1-0.2,1.7-0.3c1.6-0.2,6-0.6,11.3-0.6h1c5.9,0,11.2,0.5,13.1,0.7c0.2,0,0.4,0.1,0.6,0.1
		c0.9,0.1,1.8,0.3,2.7,0.5c4.3,1.3,7.6,4.8,8.7,9.4c0.1,0.4,0.2,0.9,0.3,1.3l1.5,10.5c2.2,0.8,4.4,1.8,6.5,2.8l8.2-6.2
		c0.1-0.1,0.3-0.2,0.4-0.3c2.2-1.6,4.9-2.4,7.7-2.3c2,0.1,4,0.6,5.8,1.6c0.8,0.4,1.6,0.9,2.2,1.5l0.2,0.2c1.5,1.3,5.5,4.5,9.7,8.6
		c0.1,0.1,0.1,0.1,0.2,0.1l0.7,0.7c4.4,4.4,7.7,8.6,8.8,10l0.2,0.3c0.3,0.4,0.7,0.8,0.9,1.3c0.8,1.3,1.3,2.7,1.7,4.1
		c0.6,2.7,0.3,5.4-0.7,7.8c-0.4,0.9-0.9,1.8-1.6,2.6l-6.4,8.6c1,2.3,1.9,4.6,2.7,6.8l10.4,1.5c2.8,0.4,5.3,1.7,7.3,3.7
		c1.8,1.8,3,4,3.4,6.5c0.1,0.4,0.1,0.9,0.2,1.3v0.2c0.5,4.8,0.8,9.3,0.8,13.5v1c0,5.9-0.5,11.2-0.7,13.1l-0.1,0.6
		c-0.1,0.9-0.2,1.7-0.5,2.6c-1.3,4.4-4.8,7.7-9.4,8.8c-0.4,0.1-0.9,0.2-1.3,0.3l-10.5,1.5c-0.8,2.2-1.8,4.5-2.8,6.5l6.3,8.4
		c0.7,0.9,1.3,1.9,1.6,2.9c1.4,3.5,1.2,7.4-0.6,10.9c-0.4,0.8-0.9,1.6-1.5,2.2l-0.2,0.3c-1.2,1.5-4.5,5.4-8.5,9.6
		c-0.1,0.1-0.1,0.1-0.1,0.2l-0.7,0.7c-4.4,4.4-8.6,7.7-10,8.8l-0.3,0.2c-0.4,0.3-0.8,0.6-1.2,0.9c-1.1,0.7-2.3,1.3-3.5,1.6
		c-2.9,0.8-6,0.5-8.6-0.7c-0.9-0.4-1.8-1-2.6-1.6l-8.6-6.7c-2.3,1-4.6,1.9-6.7,2.7l-1.5,10.4c-0.4,2.8-1.7,5.4-3.8,7.4
		c-1.8,1.7-4.1,2.9-6.5,3.3c-0.4,0.1-0.7,0.1-1.2,0.1h-0.2C423.5,347.5,419.1,347.7,414.9,347.7z M412.3,322.4c0.5,0,1.1,0,1.6,0h1
		c0.5,0,1,0,1.5,0l1.2-8.2c0.7-4.8,4.1-8.8,8.7-10.3l4-1.3c2.8-0.9,6.4-2.2,9.2-3.6l3.9-2.2c4.4-2.5,9.9-2,13.8,1.1l7,5.4
		c0.3-0.3,0.6-0.6,0.9-0.9l0.7-0.7c0.4-0.4,0.7-0.8,1.1-1.2l-5.1-6.8c-3-3.9-3.4-9.4-1-13.7l2.1-3.8c1.6-2.8,2.9-5.9,3.9-9.1
		l1.3-4.1c1.5-4.6,5.5-8,10.3-8.7l8.5-1.2c0-0.5,0-1.1,0-1.6v-1c0-0.5,0-1.1,0-1.7l-8.2-1.2c-4.8-0.7-8.8-4.1-10.3-8.7l-1.3-4
		c-0.9-2.8-2.2-6.4-3.6-9.2l-2.1-3.8c-2.4-4.3-2-9.7,0.9-13.6l5.3-7.1c-0.4-0.4-0.7-0.7-1-1l-0.7-0.7c-0.4-0.4-0.7-0.7-1.1-1
		l-6.6,5.1c-4,3.1-9.4,3.5-13.8,1l-3.9-2.2c-2.8-1.6-5.9-2.9-9.1-3.9l-4.1-1.3c-4.6-1.5-8-5.5-8.7-10.3l-1.1-8.5c-0.5,0-1.1,0-1.6,0
		h-1c-0.5,0-1,0-1.4,0l-1.2,8.4c-0.7,4.8-4.1,8.8-8.7,10.3l-4,1.3c-2.8,0.9-6.5,2.2-9.2,3.6l-3.9,2.1c-4.4,2.4-9.7,2-13.8-1
		l-7.1-5.4c-0.3,0.3-0.7,0.7-1,1l-0.7,0.7c-0.4,0.4-0.7,0.7-1,1.1l5.1,6.6c3.1,4,3.5,9.4,1,13.8l-2.2,3.9c-1.6,2.8-2.9,5.9-3.9,9.1
		l-1.3,4.1c-1.5,4.6-5.5,8-10.3,8.7l-8.5,1.2c0,0.5,0,1.1,0,1.6v1c0,0.5,0,1,0,1.4l8.4,1.2c4.8,0.7,8.8,4.1,10.3,8.7l1.3,4
		c0.9,2.8,2.2,6.4,3.6,9.2l2.1,3.9c2.4,4.4,2,9.7-1,13.8l-5.4,7.1c0.3,0.3,0.7,0.7,1,1l0.7,0.7c0.4,0.4,0.7,0.7,1.1,1l6.6-5.1
		c4-3.1,9.4-3.5,13.8-1l3.9,2.2c2.8,1.6,5.9,2.9,9.1,3.9l4.1,1.3c4.6,1.5,8,5.5,8.7,10.3L412.3,322.4z"/>
</g>
<g>
	<path fill="#FFFFFF" d="M262.2,133.7c-20,0-36.2-16.2-36.2-36.2s16.2-36.2,36.2-36.2c20,0,36.2,16.2,36.2,36.2
		S282.2,133.7,262.2,133.7z M262.2,83c-8,0-14.5,6.5-14.5,14.5s6.5,14.5,14.5,14.5c8,0,14.5-6.5,14.5-14.5S270.2,83,262.2,83z"/>
	<path fill="#FFFFFF" d="M262.2,194.7h-1c-6,0-11.2-0.5-13.1-0.7l-0.5-0.1c-1-0.1-1.9-0.3-2.8-0.6c-4.3-1.4-7.5-4.8-8.6-9.3
		c-0.1-0.4-0.2-0.9-0.3-1.3l-1.5-10.5c-2.2-0.8-4.4-1.8-6.5-2.8l-8.2,6.2c-0.1,0.1-0.4,0.3-0.5,0.4c-2.2,1.5-4.8,2.3-7.5,2.2
		c-2-0.1-4-0.6-5.9-1.5c-0.8-0.4-1.6-0.9-2.2-1.5l-0.2-0.2c-1.5-1.3-5.5-4.5-9.7-8.6c-0.1-0.1-0.1-0.1-0.1-0.1l-0.7-0.7
		c-4.4-4.4-7.7-8.6-8.9-10l-0.2-0.3c-0.3-0.4-0.6-0.7-0.8-1.2c-0.8-1.3-1.4-2.7-1.7-4.2c-0.6-2.8-0.3-5.6,0.9-8.1
		c0.4-0.9,0.9-1.7,1.5-2.5l6.5-8.6c-1-2.3-1.9-4.6-2.7-6.8l-10.4-1.5c-2.8-0.4-5.4-1.7-7.3-3.7c-1.9-2-3.2-4.7-3.6-7.5l-0.1-0.9
		c-0.1-0.5-0.2-1.1-0.3-1.7c-0.2-1.6-0.6-6-0.6-11.3v-1c0-6,0.5-11.2,0.7-13.1c0-0.2,0.1-0.4,0.1-0.6c0.1-0.9,0.3-1.8,0.5-2.7
		c1.3-4.3,4.8-7.6,9.4-8.7c0.4-0.1,0.9-0.2,1.3-0.3l10.5-1.5c0.8-2.2,1.8-4.4,2.8-6.5l-6.2-8.2c-0.1-0.1-0.2-0.3-0.4-0.4
		c-1.2-1.7-2-3.8-2.2-5.9c-0.3-2.6,0.2-5.2,1.5-7.6c0.4-0.7,0.9-1.5,1.4-2.2l0.2-0.3c1.3-1.6,4.5-5.5,8.6-9.7
		c0.1-0.1,0.1-0.1,0.1-0.2l0.7-0.7c4.4-4.4,8.6-7.7,10-8.9l0.3-0.2c0.4-0.3,0.8-0.6,1.2-0.9c1.5-1,3.1-1.6,4.8-1.9
		c2.5-0.4,5.1-0.1,7.4,1c0.9,0.4,1.8,1,2.6,1.6l8.6,6.5c2.3-1,4.6-1.9,6.8-2.7l1.5-10.4c0.4-2.8,1.8-5.4,3.8-7.4s4.6-3.1,7.4-3.5
		l0.9-0.1c0.5-0.1,1.1-0.2,1.7-0.3c1.6-0.2,6-0.6,11.3-0.6h1c5.9,0,11.2,0.5,13.1,0.7c0.2,0,0.4,0.1,0.6,0.1
		c0.9,0.1,1.8,0.3,2.7,0.5c4.3,1.3,7.6,4.8,8.7,9.4c0.1,0.4,0.2,0.9,0.3,1.3l1.5,10.5c2.2,0.8,4.4,1.8,6.5,2.8l8.2-6.2
		c0.1-0.1,0.3-0.2,0.4-0.3c2.2-1.6,4.9-2.4,7.7-2.3c2,0.1,4,0.6,5.8,1.6c0.8,0.4,1.6,0.9,2.2,1.5l0.2,0.2c1.5,1.3,5.5,4.5,9.7,8.6
		c0.1,0.1,0.1,0.1,0.2,0.1l0.7,0.7c4.4,4.4,7.7,8.6,8.8,10l0.2,0.3c0.3,0.4,0.7,0.8,0.9,1.3c0.8,1.3,1.3,2.7,1.7,4.1
		c0.6,2.7,0.3,5.4-0.7,7.8c-0.4,0.9-0.9,1.8-1.6,2.6l-6.4,8.6c1,2.3,1.9,4.6,2.7,6.8l10.4,1.5c2.8,0.4,5.3,1.7,7.3,3.7
		c1.8,1.8,3,4,3.4,6.5c0.1,0.4,0.1,0.9,0.2,1.3V84c0.5,4.8,0.8,9.3,0.8,13.5v1c0,5.9-0.5,11.2-0.7,13.1l-0.1,0.6
		c-0.1,0.9-0.2,1.7-0.5,2.6c-1.3,4.4-4.8,7.7-9.4,8.8c-0.4,0.1-0.9,0.2-1.3,0.3l-10.5,1.5c-0.8,2.2-1.8,4.5-2.8,6.5l6.3,8.4
		c0.7,0.9,1.3,1.9,1.6,2.9c1.4,3.5,1.2,7.4-0.6,10.9c-0.4,0.8-0.9,1.6-1.5,2.2l-0.2,0.3c-1.2,1.5-4.5,5.4-8.5,9.6
		c-0.1,0.1-0.1,0.1-0.1,0.2l-0.7,0.7c-4.4,4.4-8.6,7.7-10,8.8l-0.3,0.2c-0.4,0.3-0.8,0.6-1.2,0.9c-1.1,0.7-2.3,1.3-3.5,1.6
		c-2.9,0.8-6,0.5-8.6-0.7c-0.9-0.4-1.8-1-2.6-1.6l-8.6-6.7c-2.3,1-4.6,1.9-6.7,2.7l-1.5,10.4c-0.4,2.8-1.7,5.4-3.8,7.4
		c-1.8,1.7-4.1,2.9-6.5,3.3c-0.4,0.1-0.7,0.1-1.2,0.1H276C270.8,194.5,266.4,194.7,262.2,194.7z M259.6,169.4c0.5,0,1.1,0,1.6,0h1
		c0.5,0,1,0,1.5,0l1.2-8.2c0.7-4.8,4.1-8.8,8.7-10.3l4-1.3c2.8-0.9,6.4-2.2,9.2-3.6l3.9-2.2c4.4-2.5,9.9-2,13.8,1.1l7,5.4
		c0.3-0.3,0.6-0.6,0.9-0.9l0.7-0.7c0.4-0.4,0.7-0.8,1.1-1.2l-5.1-6.8c-3-3.9-3.4-9.4-1-13.7l2.1-3.8c1.6-2.8,2.9-5.9,3.9-9.1
		l1.3-4.1c1.5-4.6,5.5-8,10.3-8.7l8.5-1.2c0-0.5,0-1.1,0-1.6v-1c0-0.5,0-1.1,0-1.7l-8.2-1.2c-4.8-0.7-8.8-4.1-10.3-8.7l-1.3-4
		c-0.9-2.8-2.2-6.4-3.6-9.2l-2.1-3.8c-2.4-4.3-2-9.7,0.9-13.6l5.3-7.1c-0.4-0.4-0.7-0.7-1-1l-0.7-0.7c-0.4-0.4-0.7-0.7-1.1-1
		l-6.6,5.1c-4,3.1-9.4,3.5-13.8,1l-3.9-2.2c-2.8-1.6-5.9-2.9-9.1-3.9l-4.1-1.3c-4.6-1.5-8-5.5-8.7-10.3l-1.1-8.5c-0.5,0-1.1,0-1.6,0
		h-1c-0.5,0-1,0-1.4,0l-1.2,8.4c-0.7,4.8-4.1,8.8-8.7,10.3l-4,1.3c-2.8,0.9-6.5,2.2-9.2,3.6l-3.9,2.1c-4.4,2.4-9.7,2-13.8-1
		l-7.1-5.4c-0.3,0.3-0.7,0.7-1,1l-0.7,0.7c-0.4,0.4-0.7,0.7-1,1.1l5.1,6.6c3.1,4,3.5,9.4,1,13.8l-2.2,3.9c-1.6,2.8-2.9,5.9-3.9,9.1
		l-1.3,4.1c-1.5,4.6-5.5,8-10.3,8.7l-8.5,1.2c0,0.5,0,1.1,0,1.6v1c0,0.5,0,1,0,1.4l8.4,1.2c4.8,0.7,8.8,4.1,10.3,8.7l1.3,4
		c0.9,2.8,2.2,6.4,3.6,9.2l2.1,3.9c2.4,4.4,2,9.7-1,13.8l-5.4,7.1c0.3,0.3,0.7,0.7,1,1l0.7,0.7c0.4,0.4,0.7,0.7,1.1,1l6.6-5.1
		c4-3.1,9.4-3.5,13.8-1l3.9,2.2c2.8,1.6,5.9,2.9,9.1,3.9l4.1,1.3c4.6,1.5,8,5.5,8.7,10.3L259.6,169.4z"/>
</g>
</svg>
