<svg xmlns="http://www.w3.org/2000/svg" viewBox="0 0 512 512">
<g>
	<path fill="#222D32" d="M256,486.5c-2.7,0-5.4-0.5-7.9-1.6c-1.7-0.7-41.8-18.1-98.9-62.9C87.3,373.5,71,308.6,71,281.1V84.6
		c0-10.2,7.6-18.7,17.8-19.9c0.5-0.1,45.8-5.2,88.7-14.5c41.3-8.9,69.4-22.6,69.7-22.7c5.6-2.7,12.1-2.7,17.7,0
		c0.3,0.1,28.4,13.8,69.7,22.8c42.9,9.3,88.1,14.3,88.6,14.4c10.2,1.1,17.8,9.7,17.8,19.9v196.5c0,27.6-16.3,92.5-78.2,140.9
		c-57.3,44.8-97.2,62.2-98.9,62.9C261.4,486,258.7,486.5,256,486.5z M111,102.2v178.9c0,16.7,11.3,69,62.8,109.4
		c38.4,30.1,68.5,46.9,82.2,53.8c13.6-7,43.7-23.8,82.2-53.9c51.5-40.3,62.8-92.6,62.8-109.3V102.3c-17.8-2.4-46.6-6.7-75-12.8
		c-32.5-7.1-57.5-16.7-70-22c-12.6,5.3-37.6,14.9-70.1,21.9C157.5,95.5,128.8,99.8,111,102.2z"/>
	<path fill="#222D32" d="M255.9,398.6c-14-8.3-33.9-21.2-57.4-39.6c-44.3-34.7-47.5-77.5-47.5-77.9V136.7c13.6-2.2,28.5-5,43.3-8.1
		c24.6-5.3,45.6-12,61.7-18L255.9,398.6z"/>
</g>
</svg>
