<svg xmlns="http://www.w3.org/2000/svg" viewBox="0 0 512 512">
<path fill="#FFFFFF" d="M256,209.6c-11.8,0-21.4-9.6-21.4-21.4s9.6-21.4,21.4-21.4s21.4,9.6,21.4,21.4S267.8,209.6,256,209.6z"/>
<path fill="#FFFFFF" d="M348.3,326.2c-5.9,0-11.7-2.6-15.7-7.6c-6.9-8.7-5.4-21.2,3.2-28.1c31-24.6,48.7-61.3,48.7-100.7
	c0-70.8-57.6-128.5-128.5-128.5S127.5,119,127.5,189.8c0,39.4,17.8,76.1,48.7,100.7c8.7,6.9,10.1,19.4,3.2,28.1
	c-6.9,8.7-19.4,10.1-28.1,3.2c-40.6-32.2-63.8-80.3-63.8-132c0-92.9,75.6-168.5,168.5-168.5s168.5,75.6,168.5,168.5
	c0,51.7-23.3,99.8-63.8,132C357,324.8,352.6,326.2,348.3,326.2z"/>
<path fill="#FFFFFF" d="M299.7,263.2c-5.9,0-11.7-2.6-15.7-7.6c-6.9-8.7-5.4-21.2,3.2-28.1c12.1-9.6,19.1-24,19.1-39.4
	c0-27.7-22.6-50.3-50.3-50.3s-50.3,22.6-50.3,50.3c0,15.4,6.9,29.8,19.1,39.4c8.7,6.9,10.1,19.4,3.2,28.1
	c-6.9,8.7-19.4,10.1-28.1,3.2c-21.7-17.2-34.2-43-34.2-70.7c0-49.8,40.5-90.3,90.3-90.3s90.3,40.5,90.3,90.3
	c0,27.7-12.5,53.5-34.2,70.7C308.4,261.8,304,263.2,299.7,263.2z"/>
<path fill="#FFFFFF" d="M255,490.6c-11,0-20-9-20-20V291.4c0-11,9-20,20-20s20,9,20,20v179.2C275,481.6,266,490.6,255,490.6z"/>
</svg>
