<?xml version="1.0" encoding="utf-8"?>
<!-- Generator: Adobe Illustrator 24.1.2, SVG Export Plug-In . SVG Version: 6.00 Build 0)  -->
<svg version="1.1" id="Layer_1" xmlns="http://www.w3.org/2000/svg" xmlns:xlink="http://www.w3.org/1999/xlink" x="0px" y="0px"
	 viewBox="0 0 512 512" enable-background="new 0 0 512 512" xml:space="preserve">
<path fill="#404040" d="M219.9,124c-0.7,0-1.4,0-2-0.1c-2.9-0.3-5.6-1.2-8-2.6c-2.4-1.4-4.6-3.3-6.3-5.7c-1.4-1.9-2.5-4.1-3.1-6.5
	c-0.5-1.8-0.7-3.7-0.7-5.5V84H122c-11,0-20-9-20-20s9-20,20-20h77.9V24c0-7.1,3.8-13.7,10-17.3c6.2-3.6,13.8-3.6,20,0l69.3,40
	c6.2,3.6,10,10.2,10,17.3s-3.8,13.7-10,17.3l-69,39.8c-1.6,1-3.3,1.7-5.1,2.2C223.4,123.8,221.6,124,219.9,124z"/>
<path fill="#404040" d="M422.7,508c-0.7,0-1.4,0-2-0.1c-2.9-0.3-5.6-1.2-8-2.6c-2.4-1.4-4.6-3.3-6.3-5.7c-1.4-1.9-2.5-4.1-3.1-6.5
	c-0.5-1.8-0.7-3.7-0.7-5.5V468h-46.9c-11,0-20-9-20-20s9-20,20-20h46.9v-20c0-7.1,3.8-13.7,10-17.3c6.2-3.6,13.8-3.6,20,0l69.3,40
	c6.2,3.6,10,10.2,10,17.3s-3.8,13.7-10,17.3l-69,39.8c-1.6,1-3.3,1.7-5.2,2.2C426.1,507.8,424.4,508,422.7,508z"/>
<g>
	<path fill="#404040" d="M66,127C31.3,127,3,98.7,3,64S31.3,1,66,1s63,28.3,63,63S100.7,127,66,127z M66,35c-16,0-29,13-29,29
		s13,29,29,29s29-13,29-29S82,35,66,35z"/>
</g>
<g>
	<path fill="#404040" d="M316,319c-34.7,0-63-28.3-63-63s28.3-63,63-63s63,28.3,63,63S350.7,319,316,319z M316,227
		c-16,0-29,13-29,29c0,16,13,29,29,29s29-13,29-29C345,240,332,227,316,227z"/>
</g>
<g>
	<path fill="#404040" d="M167.1,511c-34.7,0-63-28.3-63-63s28.3-63,63-63s63,28.3,63,63S201.8,511,167.1,511z M167.1,419
		c-16,0-29,13-29,29s13,29,29,29s29-13,29-29S183.1,419,167.1,419z"/>
</g>
<path fill="#404040" d="M269.3,468H217c-11,0-20-9-20-20s9-20,20-20h52.3c11,0,20,9,20,20S280.3,468,269.3,468z"/>
<g>
	<path fill="#404040" d="M117.6,428H116c-41.9,0-76-34.1-76-76s34.1-76,76-76h153.6c-2.7-6.1-4.1-12.9-4.1-20c0-7.1,1.5-13.9,4.1-20
		H116C52,236,0,288,0,352s52,116,116,116h1.6c11,0,20-9,20-20S128.7,428,117.6,428z"/>
	<path fill="#404040" d="M396,44h-14c-11,0-20,9-20,20s9,20,20,20h14c41.9,0,76,34.1,76,76s-34.1,76-76,76h-33.6
		c2.7,6.1,4.1,12.9,4.1,20c0,7.1-1.5,13.9-4.1,20H396c64,0,116-52,116-116S460,44,396,44z"/>
</g>
</svg>
