<svg xmlns="http://www.w3.org/2000/svg" viewBox="0 0 512 512">
<path opacity="0.9" fill="#FFFFFF" d="M256,456c-110.3,0-200-89.7-200-200
	c0-53.4,20.8-103.7,58.6-141.4C152.4,76.8,202.6,56,256,56s103.6,20.8,141.4,58.6S456,202.6,456,256C456,366.3,366.3,456,256,456z"
	/>
<path fill="#598700" d="M256,8C119,8,8,119,8,256s111,248,248,248s248-111,248-248S393,8,256,8z M256,456c-110.3,0-200-89.7-200-200
	c0-53.4,20.8-103.7,58.6-141.4C152.4,76.8,202.6,56,256,56s103.6,20.8,141.4,58.6S456,202.6,456,256C456,366.3,366.3,456,256,456z"
	/>
<path fill="#598700" d="M204.2,351.6l-84.9-84.9c-7-7-7-18.4,0-25.5c7-7,18.4-7,25.5,0l72.1,72.1L351.2,179c7-7,18.4-7,25.5,0
	c7,7,7,18.4,0,25.5L229.7,351.6C222.6,358.6,211.2,358.6,204.2,351.6z"/>
</svg>
