<svg xmlns="http://www.w3.org/2000/svg" viewBox="0 0 512 512">
	<g>
		<path fill="#404040" d="M456,90.5h-65c-8.1-21.5-28.9-36.9-53.2-36.9S292.7,69,284.6,90.5H56c-11,0-20,9-20,20s9,20,20,20h228.5
			c8.1,21.5,28.9,36.9,53.2,36.9s45.1-15.4,53.2-36.9h65c11,0,20-9,20-20S467,90.5,456,90.5z M337.8,137.3
			c-14.8,0-26.9-12-26.9-26.9s12-26.9,26.9-26.9s26.9,12,26.9,26.9S352.6,137.3,337.8,137.3z"/>
		<path fill="#404040" d="M456,381.5h-65c-8.1-21.5-28.9-36.9-53.2-36.9c-24.3,0-45.1,15.4-53.2,36.9H56.1c-11,0-20,9-20,20
			s9,20,20,20h228.5c8.1,21.5,28.9,36.9,53.2,36.9c24.3,0,45.1-15.4,53.2-36.9h65c11,0,20-9,20-20S467,381.5,456,381.5z
			 M337.8,428.4c-14.8,0-26.9-12-26.9-26.9s12-26.9,26.9-26.9c14.8,0,26.9,12,26.9,26.9C364.6,416.4,352.6,428.4,337.8,428.4z"/>
		<path fill="#404040" d="M56,276h65c8.1,21.5,28.9,36.9,53.2,36.9s45.1-15.4,53.2-36.9H456c11,0,20-9,20-20s-9-20-20-20H227.5
			c-8.1-21.5-28.9-36.9-53.2-36.9S129.1,214.5,121,236H56c-11,0-20,9-20,20S45,276,56,276z M174.2,229.1c14.8,0,26.9,12,26.9,26.9
			s-12,26.9-26.9,26.9s-26.9-12-26.9-26.9S159.4,229.1,174.2,229.1z"/>
	</g>
</svg>
