<svg xmlns="http://www.w3.org/2000/svg" viewBox="0 0 512 512">
<path fill="#FFFFFF" d="M256,463.8c-114.6,0-207.8-93.2-207.8-207.8c0-55.5,21.6-107.7,60.9-146.9c39.2-39.2,91.4-60.8,146.9-60.8
	s107.7,21.6,146.9,60.8s60.9,91.4,60.9,146.9C463.8,370.5,370.6,463.8,256,463.8z"/>
<path fill="#D13530" d="M256,8C119,8,8,119,8,256s111,248,248,248s248-111,248-248S392.9,8,256,8z M256,463.7
	c-114.6,0-207.8-93.2-207.8-207.8c0-55.5,21.6-107.7,60.9-146.9c39.2-39.2,91.4-60.8,146.9-60.8S363.7,69.8,402.9,109
	s60.9,91.4,60.9,146.9C463.8,370.5,370.6,463.7,256,463.7z"/>
<g>
	<path fill="#D13530" d="M148.2,236c-11,0-20,9-20,20c0,11,9,20,20,20l215.9,0c11,0,20-9,20-20c0-11-9-20-20-20L148.2,236z"/>
</g>
</svg>
