<svg xmlns="http://www.w3.org/2000/svg" viewBox="0 0 512 512">
<path fill="#ECAB21" d="M467.1,399.7c-4.198,13-4.198,51.6,0,64.6c7.302,1.4,12.9,7.9,12.9,15.7v16c0,8.8-7.2,16-16,16H112  c-44.2,0-80-35.8-80-80V80c0-44.2,35.8-80,80-80h352c8.8,0,16,7.2,16,16v368C480,391.8,474.5,398.2,467.1,399.7z"/>
<path fill="#FFFFFF" d="M426,400H112c-17.6,0-32,14.4-32,32c0,17.7,14.3,32,32,32h314C423.3,446.7,423.3,417.3,426,400z"/>
<path fill="#FFFFFF" d="M432,48H112c-17.7,0-32,14.3-32,32v278.7c9.8-4.3,20.6-6.7,32-6.7h320V48z"/>
<path fill="#767676" d="M160,152v-32c0-4.4,3.6-8,8-8h208c4.4,0,8,3.6,8,8v32c0,4.4-3.6,8-8,8H168C163.6,160,160,156.4,160,152z"/>
<path fill="#767676" d="M168,240h208c4.4,0,8-3.6,8-8v-32c0-4.4-3.6-8-8-8H168c-4.4,0-8,3.6-8,8v32C160,236.4,163.6,240,168,240z"/>
</svg>