<svg xmlns="http://www.w3.org/2000/svg" viewBox="0 0 512 512">
<path fill="#FFFFFF" d="M471.6,442.2c-0.8,1.3-1.7,1.3-2.3,1.3H42.7c-0.6,0-1.5,0-2.3-1.3c-0.8-1.4-0.3-2.1,0-2.7L253.7,69.8
	c0.3-0.5,0.8-1.3,2.3-1.3c1.6,0,2,0.8,2.3,1.3l213.3,369.8C471.9,440.1,472.3,440.9,471.6,442.2z"/>
<path fill="#D48A00" d="M506.2,419.6L293,49.8c-16.4-28.4-57.5-28.5-73.9,0L5.8,419.6c-16.4,28.4,4.1,64,37,64h426.6
	C502.1,483.6,522.6,448,506.2,419.6z M471.6,442.2c-0.8,1.3-1.7,1.3-2.3,1.3H42.7c-0.6,0-1.5,0-2.3-1.3c-0.8-1.4-0.3-2.1,0-2.7
	L253.7,69.8c0.3-0.5,0.8-1.3,2.3-1.3c1.6,0,2,0.8,2.3,1.3l213.3,369.8C471.9,440.1,472.3,440.9,471.6,442.2z"/>
<g>
	<circle fill="#D48A00" cx="255" cy="374" r="34"/>
	<path fill="#D48A00" d="M235,288c0,11,9,20,20,20s20-9,20-20V184.4c0-11-9-20-20-20s-20,9-20,20V288z"/>
</g>
</svg>
