<svg xmlns="http://www.w3.org/2000/svg" viewBox="0 0 512 512">
<path fill="#FFFFFF" d="M506.095,234.339C455.973,149.288,362.497,92.444,256.001,92.444c-106.542,0-199.996,56.884-250.092,141.895
	c-7.88,13.367-7.88,29.956,0,43.323c50.118,85.05,143.595,141.894,250.092,141.894c106.54,0,199.996-56.884,250.093-141.895
	C513.971,264.295,513.971,247.705,506.095,234.339z"/>
<path fill="#E0E0E0" d="M256.001,376.889c-66.813,0-120.891-54.064-120.891-120.889c0-66.811,54.067-120.889,120.891-120.889
	c66.812,0,120.89,54.066,120.89,120.889C376.89,322.811,322.822,376.889,256.001,376.889z"/>
<path fill="#368abf" d="M348.443,256c0,51.057-41.389,92.443-92.442,92.443c-51.058,0-92.443-41.389-92.443-92.443
	c0-15.74,3.938-30.559,10.877-43.532l-0.001,0.029c0,21.023,17.042,38.064,38.064,38.064c21.021,0,38.063-17.042,38.063-38.064
	s-17.042-38.065-38.063-38.065l-0.027,0.001c12.973-6.938,27.791-10.876,43.53-10.876C307.055,163.557,348.443,204.944,348.443,256z
	"/>
<path fill="#767676" d="M506.093,234.339C455.971,149.288,362.495,92.443,255.999,92.443c-106.542,0-199.996,56.885-250.092,141.896
	c-7.88,13.367-7.88,29.956,0,43.323c50.118,85.05,143.595,141.894,250.092,141.894c106.54,0,199.996-56.884,250.093-141.895
	C513.969,264.295,513.969,247.705,506.093,234.339z M378.173,338.941c-36.876,21.336-79.123,32.615-122.174,32.615
	c-43.042,0-85.282-11.273-122.154-32.604C98.927,318.756,69.609,290.119,48.881,256c20.727-34.114,50.037-62.745,84.944-82.943
	c36.876-21.337,79.124-32.615,122.174-32.615c43.041,0,85.28,11.274,122.153,32.603c34.916,20.198,64.235,48.837,84.967,82.954
	C442.395,290.107,413.081,318.744,378.173,338.941z"/>
</svg>
