<svg xmlns="http://www.w3.org/2000/svg" viewBox="0 0 512 512">
<path fill="#527C00" d="M433.9,98L350,14.1C341,5.1,328.8,0,316.1,0H112C85.5,0.1,64,21.5,64,48v416c0,26.5,21.5,48,48,48h288
	c26.5,0,48-21.5,48-48V131.9C448,119.3,442.9,106.9,433.9,98z"/>
<polygon fill="#FFFFFF" points="396.1,128.1 320,128.1 320,52 "/>
<path fill="#FFFFFF" d="M112,464V48h160v104c0,13.3,10.7,24,24,24h104v288H112z"/>
<g>
	<path fill="#767676" d="M340,380H172c-6.6,0-12,5.4-12,12v12c0,6.6,5.4,12,12,12h168c6.6,0,12-5.4,12-12v-12
		C352,385.4,346.6,380,340,380z"/>
	<path fill="#767676" d="M340,312H172c-6.6,0-12,5.4-12,12v12c0,6.6,5.4,12,12,12h168c6.6,0,12-5.4,12-12v-12
		C352,317.4,346.6,312,340,312z"/>
</g>
</svg>
