<svg xmlns="http://www.w3.org/2000/svg" viewBox="0 0 512 512">
<g>
	<path fill="#E98D27" d="M357.5,72.9c-3.5-3.4-9.1-3.4-12.5,0L152.5,265.4l-15.5,89c-2.1,12,8.4,22.4,20.3,20.3l89-15.6l192.4-192.4
		c3.4-3.4,3.4-9,0-12.4L357.5,72.9z"/>
	<path fill="#DF3834" d="M501.6,54.2l-44-44c-13.8-13.7-36-13.7-49.8,0L374,44c-3.4,3.4-3.4,9,0,12.4l81.3,81.3
		c3.4,3.4,9,3.4,12.4,0l33.8-33.8C515.4,90.1,515.4,67.9,501.6,54.2z"/>
	<g>
		<path fill="#646464" d="M138.8,344.3l-1.7,10.1c-2.1,12,8.4,22.4,20.3,20.3l10.1-1.8L138.8,344.3z"/>
	</g>
</g>
<g>
	<path fill="#A3A3A3" d="M52,216h93.3l40-40L52,176c-11,0-20,9-20,20C32,207,41,216,52,216z"/>
	<path fill="#A3A3A3" d="M52,95.9l213.4,0l40-40L52,55.9c-11,0-20,9-20,20C32,86.9,41,95.9,52,95.9z"/>
	<path fill="#A3A3A3" d="M52,336h47.6l7-40H52c-11,0-20,9-20,20C32,327.1,41,336,52,336z"/>
	<path fill="#A3A3A3" d="M467,195l-21,21h14c11,0,20-9,20-20c0-4-1.2-7.7-3.2-10.8C472.6,189.4,468.9,193.1,467,195z"/>
	<path fill="#A3A3A3" d="M460,296h-94l-40,40H460c11,0,20-9,20-20C480,305,471,296,460,296z"/>
	<path fill="#A3A3A3" d="M460,416.1l-408,0c-11,0-20,9-20,20c0,11,9,20,20,20l408,0c11,0,20-9,20-20C480,425.1,471,416.1,460,416.1z
		"/>
</g>
<polygon fill="#FFFFFF" points="236.4,337.1 189.2,345.4 166.4,322.6 174.7,275.4 201.3,275.4 201.3,310.6 236.5,310.6 236.5,337.1 
	"/>
</svg>
