<?xml version="1.0" encoding="utf-8"?>
<!-- Generator: Adobe Illustrator 24.1.2, SVG Export Plug-In . SVG Version: 6.00 Build 0)  -->
<svg version="1.1" id="Layer_1" xmlns="http://www.w3.org/2000/svg" xmlns:xlink="http://www.w3.org/1999/xlink" x="0px" y="0px"
	 viewBox="0 0 512 512" style="enable-background:new 0 0 512 512;" xml:space="preserve">
<style type="text/css">
	.st0{fill:#FFFFFF;}
</style>
<path class="st0" d="M301.3,504c-10.6,0-21-3.2-30-9.4l-90.7-52.3c-14-9.8-22.3-25.8-22.3-42.9v-129l-126.9-162
	C17.1,93.4,13,71.6,21,52.3C29,32.7,48,20,69.2,20h373.6c21.2,0,40.2,12.7,48.3,32.3c7.9,19.2,3.8,41.1-10.4,56L353.6,270.4v181.3
	c0,19.5-10.7,37.4-28.1,46.3C317.9,502,309.6,504,301.3,504z M218.1,395.5l75.8,41.8V259.2c0-7.2,2.6-14.1,7.3-19.5L426.3,79.8H85.6
	l125.2,159.9c4.7,5.4,7.3,12.3,7.3,19.5L218.1,395.5L218.1,395.5z"/>
</svg>
