<svg xmlns="http://www.w3.org/2000/svg" viewBox="0 0 512 512">
	<path fill="#404040" d="M60.9,451C18,408.2,18,338.6,60.9,295.7l54-54.3c8.5-8.6,22.4-8.6,31-0.1l0,0c8.6,8.6,8.6,22.4,0,31
		l-54,54.4c-25.7,25.7-25.7,67.5,0,93.3c25.7,25.7,67.5,25.7,93.2,0l90.9-90.4c25.8-25.8,25.8-67.8,0-93.6
		c-3.9-3.9-8.3-7.3-13.1-10.2c-10.4-6.2-13.9-19.7-7.7-30.1c6.2-10.4,19.7-13.9,30.1-7.7c7.9,4.7,15.2,10.3,21.7,16.9
		c42.9,42.9,42.9,112.9,0,155.9l-90.9,90.4C173.4,493.9,103.7,493.9,60.9,451z"/>
	<path fill="#404040" d="M204.9,307.2c-42.9-42.9-42.9-112.9,0-155.9l90.9-90.4c42.7-42.7,112.5-42.7,155.3,0s42.8,112.5,0,155.3
		l-54,54.3c-8.5,8.6-22.4,8.6-31,0.1l0,0c-8.6-8.6-8.6-22.4,0-31l54-54.4c25.7-25.7,25.7-67.5,0-93.3s-67.5-25.7-93.2,0L236,182.3
		c-25.8,25.8-25.8,67.8,0,93.6c3.9,3.9,8.3,7.3,13.1,10.2c10.4,6.2,13.9,19.7,7.7,30.1c-6.2,10.4-19.7,13.9-30.1,7.7
		C218.7,319.3,211.4,313.7,204.9,307.2z"/>
</svg>
