<svg xmlns="http://www.w3.org/2000/svg" viewBox="0 0 512 512">
<path style="fill:#DF3834;" d="M353.6,366.6C315.3,319.5,230,205.2,230,141C230,63.2,293.1,0,371,0s141,63.2,141,141
	c0,64.2-85.9,178.5-123.6,225.6C379.4,377.9,362.6,377.9,353.6,366.6L353.6,366.6z M371,188c25.9,0,47-21.1,47-47s-21.1-47-47-47
	s-47,21.1-47,47S345.1,188,371,188z"/>
<g>
	<path style="fill:#A3A3A3;" d="M52,216h156.6c-6.2-14.3-10.8-27.6-13.9-40H52c-11,0-20,9-20,20S41,216,52,216z"/>
	<path style="fill:#A3A3A3;" d="M52,95.8h143.7c3.6-14.1,8.9-27.5,15.6-40H52c-11,0-20,9-20,20S41,95.8,52,95.8z"/>
	<path style="fill:#A3A3A3;" d="M52,336h228c-8.8-12.3-18.2-25.9-27.3-40H52c-11,0-20,9-20,20S41,336,52,336z"/>
	<path style="fill:#A3A3A3;" d="M460,416.2H52c-11,0-20,9-20,20s9,20,20,20h408c11,0,20-9,20-20S471,416.2,460,416.2z"/>
	<path style="fill:#A3A3A3;" d="M461.8,336C472,335,480,326.4,480,316c0-1.8-0.3-3.6-0.7-5.3C473.4,319.4,467.6,327.9,461.8,336z"/>
</g>
</svg>
