<svg xmlns="http://www.w3.org/2000/svg" viewBox="0 0 512 512">
<g>
	<path fill="#2394D5" d="M301.4,96.8L104.6,293.6c-52.5,52.5-92.6,114.2-100.9,188l0,0.2C2,497.1,14.9,510,30.2,508.3
		c73.9-8.2,135.7-48.3,188.3-100.9l196.8-196.8L301.4,96.8z"/>
	<path fill="#E98D27" d="M104.1,294.1L301.4,96.8l-32.5-32.5c-15.6-15.6-40.9-15.6-56.6,0L93.5,183c-6.3,6.3-6.2,16.4,0,22.6
		l15.6,15.6c6.3,6.3,16.4,6.3,22.6,0l108.9-108.9l22.6,22.6L104.6,293.6C104.4,293.7,104.2,293.9,104.1,294.1z"/>
	<path fill="#E98D27" d="M494.4,63.6l-46-46c-18.8-18.8-49.2-18.8-67.9,0L324,74.1L437.9,188l56.6-56.5
		C513.2,112.7,513.2,82.3,494.4,63.6z"/>
	<path fill="#FFFFFF" d="M303.6,177.8L107.2,374.2c-5.5,5.5-14.3,5.5-19.8,0c-5.5-5.5-5.5-14.3,0-19.8L283.8,158
		c5.5-5.5,14.3-5.5,19.8,0C309.1,163.5,309.1,172.3,303.6,177.8z"/>
	<path fill="#165E87" d="M6.6,461.2c-1.2,6.7-2.2,13.5-2.9,20.3l0,0.2C2,497.1,14.9,510,30.2,508.3c6.9-0.8,13.8-1.7,20.6-2.9
		L6.6,461.2z"/>
</g>
</svg>
