<svg xmlns="http://www.w3.org/2000/svg" viewBox="0 0 512 512">
<path fill="#527C00" d="M506,193.5c0,11.4-9.4,20.8-20.8,20.8H339.3c-8.5,0-15.9-5.2-19.2-13c-3.3-7.5-1.6-16.6,4.6-22.5l44.9-44.9
	c-30.6-28.3-71-44.6-113.6-44.6c-91.8,0-166.7,74.9-166.7,166.7S164.2,422.7,256,422.7c51.8,0,99.6-23.4,131.5-64.8
	c1.6-2.3,4.6-3.6,7.5-3.9c2.9,0,5.9,1,8.1,2.9l44.6,44.9c3.9,3.6,3.9,9.8,0.6,14C400.9,473.1,330.5,506,256,506
	C118.3,506,6,393.7,6,256C6,118.3,118.3,6,256,6c64.1,0,126.3,25.7,172.2,69l42.3-42c5.8-6.2,15-7.8,22.8-4.6
	c7.5,3.3,12.7,10.7,12.7,19.2V193.5z"/>
</svg>
