<svg xmlns="http://www.w3.org/2000/svg" viewBox="0 0 512 512">
<g>
	<path fill="#a3a3a3" d="M255.999,59.547c5.308,0,10.394,2.104,14.142,5.854l124.451,124.456c7.813,7.813,7.813,20.476,0,28.284
		c-7.811,7.813-20.475,7.813-28.282,0L255.999,107.834L145.691,218.141c-7.813,7.813-20.478,7.813-28.284,0
		c-7.812-7.813-7.812-20.475-0.001-28.283l124.45-124.453C245.606,61.654,250.694,59.547,255.999,59.547z"/>
	<path fill="#a3a3a3" d="M256.001,452.453c-5.308,0-10.394-2.104-14.142-5.854L117.408,322.144c-7.813-7.813-7.813-20.476,0-28.284
		c7.811-7.813,20.475-7.813,28.282,0l110.311,110.307l110.308-110.307c7.813-7.813,20.479-7.813,28.284,0
		c7.812,7.813,7.812,20.475,0.001,28.283L270.145,446.596C266.395,450.346,261.307,452.453,256.001,452.453z"/>
</g>
</svg>
