<svg xmlns="http://www.w3.org/2000/svg" viewBox="0 0 512 512">
<g>
	<path style="fill:#0075BF;" d="M60.7,256.1c0-37.5,10.3-72.7,29.9-104c12.2-19.4,27.8-36.5,45.8-50.6c11.5-10.7,13.1-28.5,3.1-41.1
		C129,47.2,110,45,96.9,55.6c-40,31.8-69.4,74.2-84.9,122.6c-15.2,47-16.1,100.1-2.3,148c10.8,37.7,29.8,71.7,55.3,100.3
		c9.6,10.7,20.3,20.8,31.8,29.9c13.2,10.5,32.2,8.4,42.7-4.9c9.9-12.5,8.5-30.3-2.9-41C90.5,374.8,60.7,318.8,60.7,256.1z"/>
	<path style="fill:#0075BF;" d="M511.6,241.5c-2.7-53.4-23.5-106.4-57.2-147.2C442.7,80,429.7,67.2,415,55.6
		c-13.2-10.5-32.2-8.4-42.7,4.9c-9.9,12.5-8.5,30.3,2.9,41c100.1,76.5,101.7,230.7,0.2,309c-11.5,10.7-13.1,28.5-3.1,41.1
		c10.6,13.2,29.6,15.4,42.7,4.9C480,405.3,516.5,324,511.6,241.5z"/>
	<path style="fill:#0075BF;" d="M352.4,155.8c-3.5-3.5-7.3-6.8-11.2-9.9c-13.2-10.5-32.2-8.4-42.7,4.9c-10.5,13.2-8.4,32.2,4.9,42.7
		c19.5,15.2,30.3,39.6,28.9,64c-0.9,17.3-8,34.1-19.6,46.9c-2.9,3.2-6,6.1-9.3,8.7c-13.1,10.5-15.3,29.5-4.9,42.7
		c6.1,7.6,14.9,11.5,23.9,11.5c12.1,0.4,21.7-8.4,30-16.6C406.5,298.2,406.5,208.4,352.4,155.8z"/>
	<path style="fill:#0075BF;" d="M213.4,355.8c10.5-13.2,8.4-32.2-4.9-42.7c-1.6-1.3-3.1-2.5-4.6-3.9c-13.7-12.6-22-29.6-24-47.7
		c-1.7-15.3,1.5-31.1,8.9-44.6c4.9-9,11.7-17,19.7-23.4c22.5-18.1,9.5-54.2-19-54.2c-12.1-0.4-21.7,8.4-30,16.6
		c-31.6,30.4-47,78.5-38.6,122.3c5.4,29.3,20,55.3,40.8,75c2.8,2.7,5.8,5.2,8.9,7.7C184,371.2,202.9,369,213.4,355.8z"/>
	<path style="fill:#0075BF;" d="M256,220.9c-17.9,0-32.4,14.5-32.5,32.4c1.9,42.9,63.1,42.9,65,0C288.4,235.4,273.8,220.9,256,220.9
		z"/>
</g>
</svg>
