<svg xmlns="http://www.w3.org/2000/svg" viewBox="0 0 512 512">
<path fill="#647572" d="M32,84V56c0-13.3,10.7-24,24-24h112l9.4-18.7c4-8.2,12.3-13.3,21.4-13.3h114.3c9.103,0,17.4,5.1,21.5,13.3
	L344,32h112c13.3,0,24,10.7,24,24v28c0,6.6-5.4,12-12,12H44C37.4,96,32,90.6,32,84z"/>
<path fill="#778b87" d="M436,128H76c-6.6,0-12,5.4-12,12v324c0,26.5,21.5,48,48,48h288c26.5,0,48-21.5,48-48V140
	C448,133.4,442.6,128,436,128z M176,432c0,8.8-7.2,16-16,16s-16-7.2-16-16V208c0-8.8,7.2-16,16-16s16,7.2,16,16V432z M272,432
	c0,8.8-7.2,16-16,16s-16-7.2-16-16V208c0-8.8,7.2-16,16-16s16,7.2,16,16V432z M368,432c0,8.8-7.2,16-16,16s-16-7.2-16-16V208
	c0-8.8,7.2-16,16-16s16,7.2,16,16V432z"/>
</svg>
