<svg xmlns="http://www.w3.org/2000/svg" viewBox="0 0 512 512">
<path fill="#404040" d="M120,144H40c-13.3,0-24-10.7-24-24V40c0-13.3,10.7-24,24-24h80c13.3,0,24,10.7,24,24v80
	C144,133.3,133.3,144,120,144z M64,96h32V64H64V96z"/>
<path fill="#404040" d="M248,496h-80c-13.3,0-24-10.7-24-24v-80c0-13.3,10.7-24,24-24h80c13.3,0,24,10.7,24,24v80
	C272,485.3,261.3,496,248,496z M192,448h32v-32h-32V448z"/>
<path fill="#404040" d="M344,104H216c-13.3,0-24-10.7-24-24s10.7-24,24-24h128c13.3,0,24,10.7,24,24S357.3,104,344,104z"/>
<path fill="#404040" d="M168,264H80c-13.3,0-24-10.7-24-24s10.7-24,24-24h88c13.3,0,24,10.7,24,24S181.3,264,168,264z"/>
<path fill="#404040" d="M472,456H344c-13.3,0-24-10.7-24-24s10.7-24,24-24h128c13.3,0,24,10.7,24,24S485.3,456,472,456z"/>
<path fill="#404040" d="M168,456H80c-13.3,0-24-10.7-24-24s10.7-24,24-24h88c13.3,0,24,10.7,24,24S181.3,456,168,456z"/>
<path fill="#404040" d="M80,456c-13.3,0-24-10.7-24-24V120c0-13.3,10.7-24,24-24s24,10.7,24,24v312C104,445.3,93.3,456,80,456z"/>
<path fill="#404040" d="M248,304h-80c-13.3,0-24-10.7-24-24v-80c0-13.3,10.7-24,24-24h80c13.3,0,24,10.7,24,24v80
	C272,293.3,261.3,304,248,304z M192,256h32v-32h-32V256z"/>
<path fill="#404040" d="M472,264H344c-13.3,0-24-10.7-24-24s10.7-24,24-24h128c13.3,0,24,10.7,24,24S485.3,264,472,264z"/>
</svg>
