<svg xmlns="http://www.w3.org/2000/svg" viewBox="0 0 512 512">
<path fill="#5E5E5E" d="M488,360.4H333.9c0,34.2-27.8,61.9-62,61.9h-32c-34.2,0-62-27.8-62-61.9H24c-13.3,0-24,10.7-24,24v104
	c0,13.3,10.7,24,24,24h464c13.3,0,24-10.7,24-24v-104C512,371.1,501.3,360.4,488,360.4z M368,484.4c-11,0-20-9-20-20s9-20,20-20
	s20,9,20,20S379,484.4,368,484.4z M432,484.4c-11,0-20-9-20-20s9-20,20-20s20,9,20,20S443,484.4,432,484.4z"/>
<path fill="#527C00" d="M271.9,384.3h-32c-13.3,0-24-10.7-24-24v-208h-71.7c-17.8,0-26.7-21.5-14.1-34.1L242.2,6
	c7.5-7.5,19.8-7.5,27.3,0l112.3,112.2c12.6,12.6,3.7,34.1-14.1,34.1h-71.8v208C295.9,373.6,285.2,384.3,271.9,384.3z"/>
</svg>
