<svg xmlns="http://www.w3.org/2000/svg" viewBox="0 0 512 512">
<circle fill="#222D32" cx="256" cy="360" r="30.7"/>
<path fill="#222D32" d="M436,464H76c-20.2,0-38.3-10.4-48.4-27.9c-10.2-17.5-10.3-38.4-0.2-56L207.4,68c10.2-17.6,28.3-28,48.6-28
	c0,0,0.1,0,0.1,0c20.2,0,38.3,10.5,48.4,28l180,312c10.1,17.5,10.1,38.4,0,56C474.3,453.5,456.2,464,436,464z M255.9,80
	c-2.8,0-9.7,0.8-13.9,8L62,400c-4.1,7.2-1.3,13.6,0.1,16c1.4,2.4,5.5,8,13.9,8h360c8.3,0,12.4-5.6,13.8-8c1.4-2.4,4.2-8.8,0-16l0,0
	l-180-312C265.6,80.8,258.7,80,255.9,80C256,80,255.9,80,255.9,80z"/>
<path fill="#222D32" d="M256,299.7c-11,0-20-9-20-20v-94.4c0-11,9-20,20-20s20,9,20,20v94.4C276,290.7,267,299.7,256,299.7z"/>
</svg>
