<svg xmlns="http://www.w3.org/2000/svg" viewBox="0 0 512 512">
<path fill="#222d32" d="M256,352.499c-53,0-96.499-42.998-96.499-96.499c0-53,42.998-96.499,96.499-96.499
	c52.998,0,96.499,42.998,96.499,96.499C352.499,308.998,308.998,352.499,256,352.499z M256,194.999
	c-33.501,0-61.001,27.5-61.001,61.001s27.5,61.001,61.001,61.001s61.001-27.5,61.001-61.001S289.501,194.999,256,194.999z M256,486
	h-2.5c-17.5,0-32.5-2.002-33.501-2.002c-7.998-0.996-13.999-6.997-15.498-15l-5-35.996C188.5,429.501,178,424.999,168,419.501
	l-28,21.499c-6.499,5-15,4.502-21.499,0c-0.5-0.498-12.5-10-25-22.002l-2-1.997c-12.5-12.5-21.501-24.502-22-25
	c-5-6.499-5-15,0-21.499l22-29.004c-5.5-10-9.5-20.996-13-31.997l-35-5c-8-1.001-13.999-7.5-15-15.503C28,288.5,26,273.5,26,256
	v-2.5c0-17.5,2-32.5,2-33.501c1.001-7.998,7-13.999,15-15.498l36.001-5C82.499,188.5,87.001,178,92.499,168l-21.499-28
	c-5-6.499-4.5-15,0-21.499c0.5-0.5,10-12.5,22-25l2-2c12.5-12.5,24.502-21.501,25-22c6.501-5,15-5,21.501,0l28.999,22
	c10-5.5,21.001-9.5,32-13l5-35c1.001-8,7.5-13.999,15.5-15c0.5-0.5,15.5-2.5,33-2.5h2.5c17.5,0,32.5,2,33.501,2
	c7.998,1.001,13.999,7,15.498,15l5,36.001c11.001,3.499,21.499,8,31.499,13.499L372.001,71c6.499-5,15-4.5,21.499,0
	c0.498,0.5,12.5,10,25,22l2.002,2c12.5,12.5,21.499,24.502,21.997,25c5,6.501,5,15,0,21.501L421,170.5
	c5.498,10,9.502,21.001,12.998,32l35,5c8.003,1.001,14.004,7.5,15,15.5c0,0.5,2.002,16.001,2.002,33.5v2.498
	c0,17.5-2.002,32.5-2.002,33.501c-0.996,8.003-6.997,13.999-15,15.503l-35.996,5c-3.501,10.996-8.003,21.499-13.501,31.499
	L441,373.002c5,6.499,4.502,15,0,21.499c-0.498,0.498-10,12.5-22.002,25l-1.997,1.997c-12.5,12.5-24.502,21.504-25,22.002
	c-6.499,5-15,5-21.499,0L341.498,421c-10,5.498-20.996,9.502-31.997,12.998l-5,35c-1.001,8.003-7.5,14.004-15.503,15
	C288.5,483.998,273.5,486,256,486z M238,449.999c4.5,0.503,10,0.503,15.5,0.503h2.5c5.498,0,11.001,0,15.498-0.503L276,417.001
	c1.001-7.5,6.499-13.003,13.501-15c15.498-3.501,30.498-9.502,43.999-18.003c3.999-2.5,8.999-2.998,13.501-1.997
	c2.5,0.498,5,1.997,6.997,3.501l26.504,20c3.496-3.003,7.5-6.504,11.499-10.503l1.997-1.997c4.004-4.004,7.5-8.003,10.503-11.504
	l-20-26.499c-4.502-6.001-4.502-13.999-1.001-20c8.501-12.998,14.502-27.5,17.998-42.5c1.504-7.5,7.5-13.501,15-14.497l33.501-4.502
	c0.503-4.502,0.503-10,0.503-15.5v-2c0-5.5,0-11.001-0.503-15.5l-32.998-4.5c-7.002-1.001-13.003-6.499-15-13.501
	c-3.501-15.498-9.502-30-17.5-43.499c-1.001-1.001-1.499-2.5-2.002-4.001c-1.997-5.498-1.001-12,2.5-16.499l20.503-27
	c-3.003-3.501-6.504-7.5-10.503-11.501l-1.997-2c-4.004-3.999-8.003-7.5-11.504-10.5l-26.499,20c-6.499,4.502-15,4.502-21.001,0
	c-12.998-7.998-27.5-13.999-42.5-17.998c-6.997-1.501-12.5-7.5-13.496-15L273.5,61c-4.502-0.5-10-0.5-15.5-0.5h-2
	c-5.5,0-11.001,0-15.5,0.5L236,94.999c-1.001,8-7,14.001-15,15c-15,3.501-29.5,9.502-42.5,17.5c-3.999,2.5-8.999,3-13.501,2.002
	c-2.5-0.5-5-2.002-7-3.501l-25.999-20c-3.501,3-7.5,6.499-11.501,10.5l-2,2c-3.999,3.999-7.5,8-10.5,11.499l20,26.501
	c4.5,5.999,4.5,13.499,1.001,20c-0.5,0.5-0.5,0.999-1.001,1.499c-8,13-13.999,27.5-17.5,42.5c-1.499,7-7.5,12.5-15,13.501
	l-33.499,4.5c-0.5,4.5-0.5,10-0.5,15.5v2c0,5.498,0,11.001,0.5,15.498L94.999,276c8,1.001,14.001,7.002,15,15v0.498
	c3.501,15,9.502,29.004,17.5,42.002c2.5,4.502,3.501,10,1.501,15c-0.5,2.002-2,3.999-3.501,6.001L106,380.502
	c3,3.496,6.499,7.5,10.5,11.499l2,1.997c3.999,4.004,8,7.5,11.499,10.503l26.501-20c6.499-5,15.999-4.502,22,0.498
	c13,8.003,27,13.501,41.499,17.5c7.002,1.499,12.5,7.5,13.501,15L238,449.999z"/>
</svg>
