<svg xmlns="http://www.w3.org/2000/svg" viewBox="0 0 512 512">
<g>
	<path fill="#FFFFFF" d="M347.4,170c0-11-9-20-20-20H52.7c-11,0-20,9-20,20s9,20,20,20h274.7C338.5,190,347.4,181,347.4,170z"/>
	<g>
		<path fill="#FFFFFF" d="M129,246.4c7.8-7.8,7.8-20.5,0-28.3l-62.3-62.3c-7.8-7.8-20.5-7.8-28.3,0s-7.8,20.5,0,28.3l62.3,62.3
			C108.6,254.2,121.3,254.1,129,246.4z"/>
		<path fill="#FFFFFF" d="M129,93.6c-7.8-7.8-20.5-7.8-28.3,0l-62.3,62.3c-7.8,7.8-7.8,20.5,0,28.3s20.5,7.8,28.3,0l62.3-62.3
			C136.9,114.1,136.8,101.4,129,93.6z"/>
	</g>
</g>
<g>
	<path fill="#FFFFFF" d="M164.6,342c0,11,9,20,20,20h274.7c11,0,20-9,20-20s-9-20-20-20H184.6C173.5,322,164.6,331,164.6,342z"/>
	<g>
		<path fill="#FFFFFF" d="M383,265.6c-7.8,7.8-7.8,20.5,0,28.3l62.3,62.3c7.8,7.8,20.5,7.8,28.3,0s7.8-20.5,0-28.3l-62.3-62.3
			C403.4,257.8,390.7,257.9,383,265.6z"/>
		<path fill="#FFFFFF" d="M383,418.4c7.8,7.8,20.5,7.8,28.3,0l62.3-62.3c7.8-7.8,7.8-20.5,0-28.3s-20.5-7.8-28.3,0L383,390.1
			C375.1,397.9,375.2,410.6,383,418.4z"/>
	</g>
</g>
</svg>
