<svg xmlns="http://www.w3.org/2000/svg" viewBox="0 0 512 512">
<path fill="#FFFFFF" d="M404.3,118.4l-74.6-74.6C317.6,31.7,301.3,25,284.4,25L109,25c0,0,0,0,0,0c-11,0-20,9-20,20v422
	c0,11,9,20,20,20h294c10.4,0,18.9-7.9,19.9-18c0.1-0.7,0.1-1.4,0.1-2V163.6C423,146.7,416.3,130.4,404.3,118.4z M302.8,73.5
	l73.6,73.6h-73.6V73.5z M129,447V65l94,0v0h39.8v98.1c0,13.2,10.8,24,24,24H383v52.8l0,0l0,207.1H129z"/>
<path fill="#FFFFFF" d="M158.6,282.9c0,11,9,20,20,20h154.7c11,0,20-9,20-20s-9-20-20-20H178.6C167.5,262.9,158.6,271.9,158.6,282.9
	z"/>
<path fill="#FFFFFF" d="M158.6,362.9c0,11,9,20,20,20h154.7c11,0,20-9,20-20s-9-20-20-20H178.6C167.5,342.9,158.6,351.9,158.6,362.9
	z"/>
</svg>
