<svg xmlns="http://www.w3.org/2000/svg" viewBox="0 0 512 512">
<path fill="#FFFFFF" d="M337.2,385.4H190.3V238.8c0-8.5-6.9-15.4-15.4-15.4s-15.4,6.9-15.4,15.4v162c0,8.5,6.9,15.4,15.4,15.4h162.2
	c8.5,0,15.4-6.9,15.4-15.4S345.6,385.4,337.2,385.4z"/>
<g>
	<path fill="#FFFFFF" d="M238.1,359.5c8.5,0,15.3-6.9,15.3-15.3v-52.1c0-8.5-6.9-15.3-15.3-15.3c-8.4,0-15.3,6.9-15.3,15.3v52.1
		C222.8,352.6,229.6,359.5,238.1,359.5z"/>
	<path fill="#FFFFFF" d="M304.8,359.5c8.5,0,15.3-6.9,15.3-15.3v-82.1c0-8.5-6.9-15.3-15.3-15.3s-15.3,6.9-15.3,15.3v82.1
		C289.5,352.6,296.3,359.5,304.8,359.5z"/>
</g>
<path fill="#FFFFFF" d="M404.3,118.4l-74.6-74.6C317.6,31.7,301.3,25,284.4,25H109l0,0c-11,0-20,9-20,20v422c0,11,9,20,20,20h294
	c10.4,0,18.9-7.9,19.9-18c0.1-0.7,0.1-1.4,0.1-2V163.6C423,146.7,416.3,130.4,404.3,118.4z M302.8,73.5l73.6,73.6h-73.6V73.5z
	 M129,447V65h94l0,0h39.8v98.1c0,13.2,10.8,24,24,24H383v52.8l0,0V447H129z"/>
</svg>
