<svg xmlns="http://www.w3.org/2000/svg" viewBox="0 0 512 512">
<path fill="#222d32" d="M256,189.6c-11.8,0-21.4-9.6-21.4-21.4s9.6-21.4,21.4-21.4s21.4,9.6,21.4,21.4S267.8,189.6,256,189.6z"/>
<path fill="#222d32" d="M362.2,511.5c-7.6,0-14.9-4.4-18.3-11.8l-88-195.8l-88,195.8c-4.5,10.1-16.4,14.6-26.4,10
	c-10.1-4.5-14.6-16.4-10-26.4l98.8-219.9c3.6-7.9,11.8-12.6,20.5-11.7c1.8,0.2,3.5,0.3,5.2,0.3c1.7,0,3.4-0.1,5.2-0.3
	c8.6-1,16.9,3.8,20.4,11.7l98.8,219.9c4.5,10.1,0,21.9-10,26.4C367.8,510.9,365,511.5,362.2,511.5z"/>
<path fill="#222d32" d="M348.3,306.2c-5.9,0-11.7-2.6-15.7-7.6c-6.9-8.7-5.4-21.2,3.2-28.1c31-24.6,48.7-61.3,48.7-100.7
	C384.5,99,326.9,41.3,256,41.3S127.5,99,127.5,169.8c0,39.4,17.8,76.1,48.7,100.7c8.7,6.9,10.1,19.4,3.2,28.1
	c-6.9,8.7-19.4,10.1-28.1,3.2c-40.6-32.2-63.8-80.3-63.8-132C87.5,76.9,163.1,1.3,256,1.3s168.5,75.6,168.5,168.5
	c0,51.7-23.3,99.8-63.8,132C357,304.8,352.6,306.2,348.3,306.2z"/>
<path fill="#222d32" d="M299.7,243.2c-5.9,0-11.7-2.6-15.7-7.6c-6.9-8.7-5.4-21.2,3.2-28.1c12.1-9.6,19.1-24,19.1-39.4
	c0-27.7-22.6-50.3-50.3-50.3s-50.3,22.6-50.3,50.3c0,15.4,6.9,29.8,19.1,39.4c8.7,6.9,10.1,19.4,3.2,28.1
	c-6.9,8.7-19.4,10.1-28.1,3.2c-21.7-17.2-34.2-43-34.2-70.7c0-49.8,40.5-90.3,90.3-90.3s90.3,40.5,90.3,90.3
	c0,27.7-12.5,53.5-34.2,70.7C308.4,241.8,304,243.2,299.7,243.2z"/>
<g>
	<g>
		<path fill="#222d32" d="M348.5,489.5c-2.7,0-5.5-0.8-8-2.3L248,428.6c-7-4.4-9.1-13.7-4.6-20.7c4.4-7,13.7-9.1,20.7-4.6l92.5,58.6
			c7,4.4,9.1,13.7,4.6,20.7C358.3,487,353.5,489.5,348.5,489.5z"/>
	</g>
	<g>
		<path fill="#222d32" d="M163.5,489.5c-5,0-9.8-2.5-12.7-7c-4.4-7-2.4-16.3,4.6-20.7l92.5-58.6c7-4.4,16.3-2.4,20.7,4.6
			c4.4,7,2.4,16.3-4.6,20.7l-92.5,58.6C169,488.8,166.2,489.5,163.5,489.5z"/>
	</g>
</g>
<g>
	<g>
		<path fill="#222d32" d="M256,430.9c-2.2,0-4.4-0.5-6.5-1.5c-7.5-3.6-10.6-12.6-7-20l36.3-75c3.6-7.5,12.6-10.6,20-7
			c7.5,3.6,10.6,12.6,7,20l-36.3,75C266.9,427.8,261.6,430.9,256,430.9z"/>
	</g>
	<g>
		<path fill="#222d32" d="M256,430.9c-5.6,0-10.9-3.1-13.5-8.5l-36.3-75c-3.6-7.5-0.5-16.4,7-20c7.5-3.6,16.4-0.5,20,7l36.3,75
			c3.6,7.5,0.5,16.4-7,20C260.4,430.4,258.2,430.9,256,430.9z"/>
	</g>
</g>
</svg>
