<svg xmlns="http://www.w3.org/2000/svg" viewBox="0 0 512 512">
<g>
	<path fill="#222d32" d="M332.9,332.8c7.8-7.8,7.8-20.5,0-28.3l-62.3-62.3c-7.8-7.8-20.5-7.8-28.3,0s-7.8,20.5,0,28.3l62.3,62.3
		C312.5,340.6,325.1,340.6,332.9,332.8z"/>
	<path fill="#222d32" d="M256.5,132.4c-11,0-20,9-20,20v104.1c0,11,9,20,20,20s20-9,20-20V152.4
		C276.5,141.3,267.5,132.4,256.5,132.4z"/>
	<g>
		<g>
			<path fill="#222d32" d="M178.4,136.4c0-11-9-20-20-20H70.3c-11,0-20,9-20,20s9,20,20,20h88.1
				C169.5,156.3,178.4,147.3,178.4,136.4z"/>
			<path fill="#222d32" d="M70.3,28.4c-11,0-20,9-20,20v88.1c0,11,9,20,20,20s20-9,20-20V48.4C90.4,37.3,81.3,28.4,70.3,28.4z"/>
		</g>
	</g>
	<path fill="#222d32" d="M256.5,493.8c-63.4,0-123-24.7-167.8-69.5c-7.8-7.8-7.8-20.5,0-28.3s20.5-7.8,28.3,0
		c77,77,202.2,77,279.1,0c77-77,77-202.2,0-279.1c-77-77-202.2-77-279.1,0c-7.8,7.8-20.5,7.8-28.3,0s-7.8-20.5,0-28.3
		C133.5,43.7,193.1,19,256.5,19s123,24.7,167.8,69.5s69.5,104.4,69.5,167.8s-24.7,123-69.5,167.8
		C379.5,469.1,319.9,493.8,256.5,493.8z"/>
</g>
</svg>
