<svg xmlns="http://www.w3.org/2000/svg" viewBox="0 0 512 512">
<g>
	<path fill="#222d32" d="M468,424h-79.7c-11,0-20,9-20,20s9,20,20,20H468c11.1,0,20-9,20-20S479,424,468,424z"/>
	<path fill="#222d32" d="M468,48c-11,0-20,9-20,20v376c0,11,9,20,20,20s20-9,20-20V68C488,56.9,479,48,468,48z"/>
	<path fill="#222d32" d="M468,48h-79.7c-11,0-20,9-20,20s9,20,20,20H468c11.1,0,20-9,20-20S479,48,468,48z"/>
</g>
<g>
	<path fill="#222d32" d="M204,256.1c0,11,9,20,20,20h143.9c11,0,20-9,20-20s-9-20-20-20H224C212.9,236.1,204,245.1,204,256.1z"/>
	<g>
		<path fill="#222d32" d="M291.6,179.7c-7.8,7.8-7.8,20.5,0,28.3l62.3,62.3c7.8,7.8,20.5,7.8,28.3,0s7.8-20.5,0-28.3l-62.3-62.3
			C312,171.8,299.3,171.9,291.6,179.7z"/>
		<path fill="#222d32" d="M291.6,332.4c7.8,7.8,20.5,7.8,28.3,0l62.3-62.3c7.8-7.8,7.8-20.5,0-28.3s-20.5-7.8-28.3,0l-62.3,62.3
			C283.7,311.9,283.8,324.7,291.6,332.4z"/>
	</g>
</g>
<g>
	<circle fill="#222d32" cx="44" cy="255.9" r="20"/>
	<circle fill="#222d32" cx="124" cy="255.9" r="20"/>
	<circle fill="#222d32" cx="44" cy="452" r="20"/>
	<circle fill="#222d32" cx="44" cy="59.9" r="20"/>
	<circle fill="#222d32" cx="44" cy="157.9" r="20"/>
	<circle fill="#222d32" cx="124" cy="157.9" r="20"/>
	<circle fill="#222d32" cx="44" cy="354" r="20"/>
	<circle fill="#222d32" cx="124" cy="354" r="20"/>
</g>
</svg>
