<?xml version="1.0" encoding="utf-8"?>
<svg version="1.1" xmlns="http://www.w3.org/2000/svg" xmlns:xlink="http://www.w3.org/1999/xlink" x="0px" y="0px"
	 viewBox="0 0 64 36" enable-background="new 0 0 64 36" xml:space="preserve">
<g>
	<path fill="#FFFFFF" d="M7.8,24.6c-2,0-3.6-0.5-4.7-1.7S1.5,20.1,1.5,18c0-1.1,0.2-2,0.5-2.8c0.3-0.8,0.7-1.5,1.3-2.1s1.3-1,2-1.3
		s1.6-0.4,2.5-0.4c0.5,0,1.1,0,1.5,0.1s0.8,0.2,1.2,0.3c0.3,0.1,0.6,0.2,0.8,0.3s0.4,0.2,0.4,0.2l-0.8,2.3c-0.4-0.2-0.8-0.4-1.4-0.5
		c-0.5,0-1-0.1-1.6-0.1c-0.4,0-0.8,0.1-1.3,0.2c-0.4,0.1-0.7,0.4-1.1,0.7c-0.3,0.3-0.5,0.7-0.7,1.3c-0.2,0.4-0.3,1.1-0.3,1.8
		c0,0.5,0,1.1,0.1,1.6s0.3,1,0.6,1.3c0.3,0.3,0.6,0.6,1.2,0.8C6.8,21.9,7.5,22,8.1,22c0.4,0,0.7,0,1.1-0.1c0.3,0,0.6-0.1,0.8-0.2
		s0.4-0.1,0.6-0.2c0.2-0.1,0.3-0.2,0.5-0.2l0.7,2.2c-0.4,0.2-1,0.4-1.7,0.6C9.5,24.3,8.7,24.6,7.8,24.6z"/>
	<path fill="#FFFFFF" d="M25.2,18c0,1.1-0.2,2-0.5,2.9c-0.3,0.8-0.7,1.5-1.3,2c-0.5,0.5-1.2,1-2,1.3c-0.7,0.3-1.6,0.4-2.4,0.4
		s-1.7-0.1-2.4-0.4c-0.7-0.3-1.4-0.7-2-1.3c-0.6-0.5-1.1-1.3-1.4-2C13,20,12.7,19.1,12.7,18s0.2-2,0.5-2.9c0.3-0.8,0.7-1.5,1.4-2
		c0.5-0.5,1.3-1,2-1.3c0.7-0.3,1.6-0.4,2.3-0.4c0.8,0,1.7,0.1,2.4,0.4c0.7,0.3,1.4,0.7,2,1.3c0.5,0.5,1.1,1.3,1.4,2
		C25.1,16,25.2,16.9,25.2,18z M15.7,18c0,0.6,0.1,1.2,0.2,1.7s0.3,1,0.6,1.3c0.3,0.3,0.6,0.6,1.1,0.8s0.8,0.3,1.4,0.3
		c0.5,0,1-0.1,1.4-0.3c0.4-0.2,0.7-0.4,1.1-0.8c0.3-0.3,0.5-0.7,0.6-1.3s0.2-1.1,0.2-1.7s-0.1-1.2-0.2-1.7c-0.1-0.5-0.3-1-0.6-1.3
		c-0.3-0.3-0.6-0.6-1.1-0.8s-0.8-0.3-1.4-0.3c-0.5,0-1,0.1-1.4,0.3s-0.7,0.4-1.1,0.8c-0.3,0.3-0.5,0.7-0.6,1.3
		C15.8,16.8,15.7,17.4,15.7,18z"/>
	<path fill="#FFFFFF" d="M35,24.2c-0.2-0.4-0.5-0.8-0.8-1.3c-0.3-0.4-0.7-1-1.2-1.5c-0.4-0.5-0.8-1-1.3-1.4
		c-0.4-0.4-0.8-0.8-1.3-1.2v5.3h-2.9V11.8h2.9v4.7c0.7-0.7,1.5-1.6,2.2-2.4c0.7-0.8,1.5-1.6,2.1-2.3h3.4c-0.8,1.1-1.7,2-2.5,3
		s-1.8,1.9-2.8,2.9c1,0.8,2,1.8,2.9,3c1,1.2,1.8,2.4,2.6,3.8H35V24.2z"/>
	<path fill="#FFFFFF" d="M45,24.6c-2,0-3.6-0.5-4.7-1.7c-1.1-1.2-1.6-2.8-1.6-4.9c0-1.1,0.2-2,0.5-2.8c0.3-0.8,0.7-1.5,1.4-2
		c0.6-0.5,1.3-1,2-1.3s1.6-0.4,2.5-0.4c0.5,0,1.1,0,1.5,0.1s0.8,0.2,1.2,0.3c0.3,0.1,0.6,0.2,0.8,0.3s0.4,0.2,0.4,0.2l-0.8,2.3
		c-0.4-0.2-0.8-0.4-1.4-0.5c-0.5-0.1-1.1-0.2-1.7-0.2c-0.4,0-0.8,0.1-1.3,0.2c-0.4,0.1-0.7,0.4-1.1,0.7c-0.3,0.3-0.5,0.7-0.7,1.3
		c-0.2,0.5-0.3,1.2-0.3,1.8c0,0.5,0.1,1.2,0.2,1.6c0.1,0.5,0.3,1,0.6,1.3s0.6,0.6,1.1,0.8c0.4,0.2,1.1,0.3,1.7,0.3
		c0.4,0,0.7,0,1.1-0.1c0.3,0,0.6-0.1,0.8-0.2s0.4-0.1,0.6-0.2c0.2-0.1,0.3-0.2,0.5-0.2l0.7,2.2c-0.4,0.2-1,0.4-1.7,0.6
		C46.8,24.5,46,24.6,45,24.6z"/>
	<path fill="#FFFFFF" d="M62.5,18c0,1.1-0.2,2-0.5,2.9c-0.3,0.8-0.7,1.5-1.3,2c-0.5,0.5-1.2,1-2,1.3s-1.6,0.4-2.4,0.4
		s-1.7-0.1-2.4-0.4s-1.4-0.7-2-1.3c-0.6-0.5-1.1-1.3-1.4-2C50.2,20,50,19.1,50,18s0.2-2,0.5-2.9c0.3-0.8,0.7-1.5,1.4-2
		c0.5-0.5,1.3-1,2-1.3s1.6-0.4,2.3-0.4c0.8,0,1.7,0.1,2.4,0.4c0.7,0.3,1.4,0.7,2,1.3c0.5,0.5,1.1,1.3,1.4,2
		C62.4,16,62.5,16.9,62.5,18z M53,18c0,0.6,0.1,1.2,0.2,1.7s0.3,1,0.6,1.3s0.6,0.6,1.1,0.8c0.4,0.2,0.8,0.3,1.4,0.3
		c0.5,0,1-0.1,1.4-0.3c0.4-0.2,0.7-0.4,1.1-0.8c0.3-0.4,0.5-0.7,0.6-1.3s0.2-1.1,0.2-1.7s-0.1-1.2-0.2-1.7c-0.1-0.5-0.3-1-0.6-1.3
		s-0.6-0.6-1.1-0.8c-0.4-0.2-0.8-0.3-1.4-0.3c-0.5,0-1,0.1-1.4,0.3s-0.7,0.4-1.1,0.8c-0.3,0.4-0.5,0.8-0.6,1.3
		C53,16.8,53,17.4,53,18z"/>
</g>
</svg>
