<?xml version="1.0" encoding="utf-8"?>
<!-- Generator: Adobe Illustrator 24.1.2, SVG Export Plug-In . SVG Version: 6.00 Build 0)  -->
<svg version="1.1" id="Layer_1" xmlns="http://www.w3.org/2000/svg" xmlns:xlink="http://www.w3.org/1999/xlink" x="0px" y="0px"
	 viewBox="0 0 512 512" enable-background="new 0 0 512 512" xml:space="preserve">
<polygon fill="none" stroke="#222D32" stroke-width="20" stroke-linecap="round" stroke-linejoin="round" stroke-miterlimit="10" points="
	285,144.9 46.3,48.9 46.3,492.9 285,492.9 "/>
<path fill="none" stroke="#222D32" stroke-width="20" stroke-linecap="round" stroke-linejoin="round" stroke-miterlimit="10" d="
	M285,454.3"/>
<path fill="none" stroke="#222D32" stroke-width="20" stroke-linecap="round" stroke-linejoin="round" stroke-miterlimit="10" d="
	M46.3,454.3"/>
<polyline fill="none" stroke="#222D32" stroke-width="20" stroke-linecap="round" stroke-linejoin="round" stroke-miterlimit="10" points="
	261.9,135.6 261.9,96.9 69.5,19.6 69.5,58.2 "/>
<polygon fill="none" stroke="#222D32" stroke-width="20" stroke-linecap="round" stroke-linejoin="round" stroke-miterlimit="10" points="
	467.7,304.9 285,256.9 285,492.9 467.7,492.9 "/>
<rect x="127.3" y="410.2" fill="none" stroke="#222D32" stroke-width="20" stroke-linecap="round" stroke-linejoin="round" stroke-miterlimit="10" width="76.7" height="82.7"/>
<g>
	
		<rect x="95.7" y="172.8" fill="none" stroke="#222D32" stroke-width="20" stroke-linecap="round" stroke-linejoin="round" stroke-miterlimit="10" width="20" height="20.9"/>
	
		<rect x="155.7" y="172.8" fill="none" stroke="#222D32" stroke-width="20" stroke-linecap="round" stroke-linejoin="round" stroke-miterlimit="10" width="20" height="20.9"/>
	
		<rect x="215.7" y="172.8" fill="none" stroke="#222D32" stroke-width="20" stroke-linecap="round" stroke-linejoin="round" stroke-miterlimit="10" width="20" height="20.9"/>
	
		<rect x="95.7" y="253.7" fill="none" stroke="#222D32" stroke-width="20" stroke-linecap="round" stroke-linejoin="round" stroke-miterlimit="10" width="20" height="20.9"/>
	
		<rect x="155.7" y="253.7" fill="none" stroke="#222D32" stroke-width="20" stroke-linecap="round" stroke-linejoin="round" stroke-miterlimit="10" width="20" height="20.9"/>
	
		<rect x="215.7" y="253.7" fill="none" stroke="#222D32" stroke-width="20" stroke-linecap="round" stroke-linejoin="round" stroke-miterlimit="10" width="20" height="20.9"/>
	
		<rect x="95.7" y="333.7" fill="none" stroke="#222D32" stroke-width="20" stroke-linecap="round" stroke-linejoin="round" stroke-miterlimit="10" width="20" height="20.9"/>
	
		<rect x="155.7" y="333.7" fill="none" stroke="#222D32" stroke-width="20" stroke-linecap="round" stroke-linejoin="round" stroke-miterlimit="10" width="20" height="20.9"/>
	
		<rect x="215.7" y="333.7" fill="none" stroke="#222D32" stroke-width="20" stroke-linecap="round" stroke-linejoin="round" stroke-miterlimit="10" width="20" height="20.9"/>
</g>
<g>
	
		<rect x="336.3" y="342" fill="none" stroke="#222D32" stroke-width="20" stroke-linecap="round" stroke-linejoin="round" stroke-miterlimit="10" width="20" height="20.9"/>
	
		<rect x="396.3" y="342" fill="none" stroke="#222D32" stroke-width="20" stroke-linecap="round" stroke-linejoin="round" stroke-miterlimit="10" width="20" height="20.9"/>
	
		<rect x="336.3" y="414" fill="none" stroke="#222D32" stroke-width="20" stroke-linecap="round" stroke-linejoin="round" stroke-miterlimit="10" width="20" height="20.9"/>
	
		<rect x="396.3" y="414" fill="none" stroke="#222D32" stroke-width="20" stroke-linecap="round" stroke-linejoin="round" stroke-miterlimit="10" width="20" height="20.9"/>
</g>
<polyline fill="none" stroke="#222D32" stroke-width="20" stroke-linecap="round" stroke-linejoin="round" stroke-miterlimit="10" points="
	319.3,264.3 319.3,227.7 445.3,260.8 445.3,297.4 "/>
<path fill="none" stroke="#000000" stroke-miterlimit="10" d="M-376.3,62.6c0-30.5,24.8-55.3,55.3-55.3s55.3,24.8,55.3,55.3"/>
<line fill="none" stroke="#000000" stroke-miterlimit="10" x1="-389.7" y1="62.6" x2="-252.3" y2="62.6"/>
<line fill="none" stroke="#000000" stroke-miterlimit="10" x1="-386.7" y1="101.8" x2="-255.3" y2="101.8"/>
<line fill="none" stroke="#000000" stroke-miterlimit="10" x1="-389.7" y1="125.2" x2="-252.3" y2="125.2"/>
<line fill="none" stroke="#000000" stroke-miterlimit="10" x1="-401.3" y1="144.9" x2="-240.7" y2="144.9"/>
<line fill="none" stroke="#000000" stroke-miterlimit="10" x1="-321" y1="-8.1" x2="-321" y2="7.3"/>
<g>
	<line fill="none" stroke="#000000" stroke-miterlimit="10" x1="-376.3" y1="71.5" x2="-376.3" y2="101.8"/>
	<line fill="none" stroke="#000000" stroke-miterlimit="10" x1="-339.4" y1="71.5" x2="-339.4" y2="101.8"/>
	<line fill="none" stroke="#000000" stroke-miterlimit="10" x1="-302.6" y1="71.5" x2="-302.6" y2="101.8"/>
	<line fill="none" stroke="#000000" stroke-miterlimit="10" x1="-265.7" y1="71.5" x2="-265.7" y2="101.8"/>
</g>
</svg>
