<?xml version="1.0" encoding="utf-8"?>
<svg version="1.1" xmlns="http://www.w3.org/2000/svg" xmlns:xlink="http://www.w3.org/1999/xlink" x="0px" y="0px"
	 viewBox="0 0 128 36" enable-background="new 0 0 128 36" xml:space="preserve">
<g>
	<path fill="#293135" d="M11.7,30.5c-1.8,0-3.4-0.3-4.9-0.8c-1.4-0.6-2.6-1.4-3.6-2.4c-1-1.1-1.8-2.4-2.3-3.9
		C0.4,21.8,0.1,20,0.1,18s0.3-3.8,0.9-5.3c0.6-1.6,1.5-2.9,2.5-4c1.1-1.1,2.3-1.9,3.7-2.4c1.4-0.6,3-0.8,4.6-0.8
		c1,0,1.9,0.1,2.7,0.2C15.3,5.9,16,6,16.6,6.2s1.1,0.4,1.5,0.6s0.7,0.4,0.8,0.5l-1.3,3.6c-0.6-0.3-1.3-0.7-2.4-1
		c-1-0.3-2.1-0.5-3.3-0.5c-1,0-2,0.2-2.9,0.5c-0.9,0.4-1.7,0.9-2.3,1.6c-0.7,0.7-1.2,1.6-1.5,2.7c-0.4,1.1-0.6,2.3-0.6,3.8
		c0,1.3,0.1,2.4,0.4,3.5s0.7,2,1.3,2.8s1.4,1.4,2.3,1.8s2,0.6,3.3,0.6c1.5,0,2.8-0.2,3.8-0.5s1.7-0.6,2.3-0.9l1.2,3.6
		c-0.3,0.2-0.7,0.4-1.1,0.6c-0.5,0.2-1,0.4-1.7,0.5c-0.6,0.2-1.4,0.3-2.2,0.4C13.5,30.5,12.6,30.5,11.7,30.5z"/>
	<path fill="#293135" d="M44.8,18c0,2.1-0.3,3.9-0.9,5.4c-0.6,1.6-1.4,2.9-2.5,3.9c-1.1,1.1-2.3,1.8-3.7,2.4
		c-1.4,0.5-2.9,0.8-4.5,0.8c-1.6,0-3.1-0.3-4.5-0.8S26,28.4,25,27.3c-1.1-1.1-1.9-2.4-2.5-3.9c-0.7-1.5-1-3.3-1-5.4s0.3-3.9,0.9-5.4
		s1.5-2.9,2.5-3.9c1.1-1.1,2.3-1.9,3.7-2.4c1.4-0.5,2.9-0.8,4.5-0.8s3.1,0.3,4.5,0.8s2.6,1.3,3.7,2.4c1.1,1.1,1.9,2.4,2.5,3.9
		C44.5,14.1,44.8,15.9,44.8,18z M26.1,18c0,1.3,0.2,2.5,0.5,3.6s0.8,2,1.4,2.7c0.6,0.8,1.4,1.3,2.2,1.8c0.9,0.4,1.9,0.6,3,0.6
		s2.1-0.2,2.9-0.6c0.9-0.4,1.6-1,2.2-1.8c0.6-0.8,1.1-1.7,1.4-2.7c0.3-1.1,0.5-2.3,0.5-3.6c0-1.3-0.2-2.5-0.5-3.6s-0.8-2-1.4-2.7
		c-0.6-0.8-1.4-1.3-2.2-1.8c-0.9-0.4-1.9-0.6-2.9-0.6c-1.1,0-2.1,0.2-3,0.6c-0.9,0.4-1.6,1-2.2,1.8s-1.1,1.7-1.4,2.7
		C26.2,15.5,26.1,16.7,26.1,18z"/>
	<path fill="#293135" d="M94.9,30.5c-1.8,0-3.4-0.3-4.9-0.8c-1.4-0.6-2.6-1.4-3.6-2.4c-1-1.1-1.8-2.4-2.3-3.9
		c-0.5-1.6-0.8-3.4-0.8-5.4s0.3-3.8,0.9-5.3s1.4-2.9,2.5-3.9c1.1-1.1,2.3-1.9,3.7-2.4c1.4-0.6,3-0.8,4.6-0.8c1,0,1.9,0.1,2.7,0.2
		c0.9,0,1.6,0.2,2.2,0.4c0.6,0.2,1.1,0.4,1.5,0.6s0.7,0.4,0.8,0.5l-1.3,3.6c-0.6-0.3-1.3-0.7-2.4-1c-1-0.3-2.1-0.5-3.3-0.5
		c-1,0-2,0.2-2.9,0.5c-0.9,0.4-1.7,0.9-2.3,1.6c-0.7,0.7-1.2,1.6-1.5,2.7c-0.4,1.1-0.6,2.3-0.6,3.8c0,1.3,0.1,2.4,0.4,3.5
		s0.7,2,1.3,2.8c0.6,0.8,1.4,1.4,2.3,1.8s2,0.6,3.3,0.6c1.5,0,2.8-0.2,3.8-0.5s1.7-0.6,2.3-0.9l1.2,3.6c-0.3,0.2-0.7,0.4-1.1,0.6
		c-0.5,0.2-1,0.4-1.7,0.5c-0.6,0.2-1.4,0.3-2.2,0.4C96.7,30.5,95.8,30.5,94.9,30.5z"/>
	<path fill="#293135" d="M128,18c0,2.1-0.3,3.9-0.9,5.4c-0.6,1.6-1.4,2.9-2.5,3.9c-1.1,1.1-2.3,1.8-3.7,2.4
		c-1.4,0.5-2.9,0.8-4.5,0.8s-3.1-0.3-4.5-0.8s-2.7-1.3-3.7-2.4c-1.1-1.1-1.9-2.4-2.5-3.9c-0.6-1.6-0.9-3.4-0.9-5.4
		c0-2.1,0.3-3.9,0.9-5.4c0.6-1.6,1.5-2.9,2.5-3.9c1.1-1.1,2.3-1.9,3.7-2.4c1.4-0.5,2.9-0.8,4.5-0.8s3.1,0.3,4.5,0.8s2.6,1.3,3.7,2.4
		s1.9,2.4,2.5,3.9S128,15.9,128,18z M109.2,18c0,1.3,0.2,2.5,0.5,3.6s0.8,2,1.4,2.7c0.6,0.8,1.4,1.3,2.2,1.8c0.9,0.4,1.9,0.6,3,0.6
		s2.1-0.2,2.9-0.6c0.9-0.4,1.6-1,2.2-1.8s1.1-1.7,1.4-2.7c0.3-1.1,0.5-2.3,0.5-3.6c0-1.3-0.2-2.5-0.5-3.6s-0.8-2-1.4-2.7
		c-0.6-0.8-1.4-1.3-2.2-1.8c-0.9-0.4-1.9-0.6-2.9-0.6c-1.1,0-2.1,0.2-3,0.6c-0.9,0.4-1.6,1-2.2,1.8s-1.1,1.7-1.4,2.7
		S109.2,16.7,109.2,18z"/>
</g>
<path fill="#293135" d="M77.1,3.1c0,0-3.6-0.4-6.9-1.1c-3.2-0.7-5.4-1.8-5.4-1.8c-0.4-0.2-0.9-0.2-1.4,0c0,0-2.2,1.1-5.4,1.8
	c-3.3,0.7-6.9,1.1-6.9,1.1c-0.8,0.1-1.4,0.8-1.4,1.6V20c0,2.1,1.3,7.2,6.1,11c4.5,3.5,7.6,4.9,7.7,4.9C63.6,36,63.8,36,64,36
	c0.2,0,0.4,0,0.6-0.1c0.1-0.1,3.2-1.4,7.7-4.9c4.8-3.8,6.1-8.8,6.1-11V4.6C78.4,3.8,77.9,3.1,77.1,3.1z M74.3,20
	c0,1.1-0.8,4.9-4.5,7.7c-2.5,2-4.6,3.2-5.8,3.9c-1.1-0.6-3.2-1.8-5.8-3.9c-3.7-2.9-4.5-6.7-4.5-7.8v-13c1.4-0.2,3.2-0.5,5.1-0.9
	c2.2-0.5,4-1.1,5.3-1.6C65.2,4.8,67,5.5,69.4,6c1.8,0.4,3.6,0.7,5.1,0.9V20H74.3z"/>
<g>
	<path fill="#293135" d="M67.1,23.7c-0.3-0.5-0.6-0.9-1-1.5s-0.8-1.1-1.2-1.6c-0.4-0.5-0.9-1.1-1.4-1.5c-0.5-0.5-1-0.9-1.5-1.3v5.9
		h-3.2v-14H62V15c0.8-0.9,1.6-1.7,2.5-2.7c0.8-0.9,1.6-1.8,2.3-2.6h3.7c-1,1.1-1.9,2.2-2.9,3.3c-1,1-2,2.1-3,3.2
		c1.1,0.9,2.2,2,3.2,3.3s2,2.7,3,4.2H67.1z"/>
</g>
</svg>
