<svg xmlns="http://www.w3.org/2000/svg" viewBox="0 0 512 512">

<path fill="#FFFFFF" d="M266.528,96.119c-1.652,10.244,4.421,20.177,14.172,22.874c27.318,4.287,53.447,16.733,74.374,37.385
	c51.267,51.267,52.679,133.995,4.949,188.796l0.352-54.801c-0.352-10.958-9.19-19.797-20.149-20.149
	c-10.961,0.354-19.8,9.192-20.151,20.151l-0.708,98.287c0,5.655,2.12,10.606,6.008,14.494c3.891,3.892,8.842,6.012,14.497,6.012
	l98.644-0.353c10.958-0.353,19.797-9.191,19.441-20.153c0.002-11.313-8.837-20.151-20.153-20.153l-44.9,0.354
	c58.69-70.713,55.511-175.007-9.544-240.062c-27.073-27.073-60.839-43.461-96.13-49.186
	C277.253,79.268,268.153,86.037,266.528,96.119z"/>

<path fill="#FFFFFF" d="M245.472,415.882c1.652-10.244-4.421-20.178-14.171-22.874c-27.32-4.287-53.447-16.732-74.374-37.385
	c-51.267-51.267-52.679-133.995-4.95-188.795l-0.352,54.8c0.353,10.958,9.191,19.797,20.15,20.149
	c10.96-0.354,19.799-9.192,20.15-20.151l0.708-98.287c0-5.656-2.12-10.607-6.008-14.495c-3.891-3.891-8.842-6.011-14.497-6.011
	l-98.643,0.352c-10.959,0.352-19.798,9.191-19.442,20.153c-0.002,11.313,8.837,20.152,20.153,20.153l44.899-0.354
	c-58.689,70.712-55.51,175.006,9.545,240.061c27.074,27.073,60.84,43.461,96.131,49.185
	C234.747,432.732,243.846,425.963,245.472,415.882z"/>

</svg>
