<svg xmlns="http://www.w3.org/2000/svg" viewBox="0 0 512 512">
<path fill="#F7A000" d="M255,8C118.043,8,7,119.013,7,256c0,136.957,111.043,248,248,248s248-111.043,248-248
	C503,119.013,391.957,8,255,8z M255,472c-119.103,0-216-96.896-216-216c0-57.702,22.47-111.947,63.269-152.742
	C143.063,62.465,197.305,40,255,40c57.695,0,111.938,22.465,152.732,63.258C448.531,144.053,471,198.298,471,256
	C471,375.104,374.102,472,255,472z"/>
<g>
	<path fill="#F7A000" d="M256,121.219c8.836,0,16,7.163,16,16v131.563c0,8.836-7.164,16-16,16c-8.837,0-16-7.164-16-16V137.22
		C240,128.382,247.163,121.219,256,121.219z"/>
	<circle fill="#F7A000" cx="256" cy="356.781" r="34"/>
</g>
</svg>
