<svg xmlns="http://www.w3.org/2000/svg" viewBox="0 0 512 512">
<path fill="#FFFFFF" d="M445.999,383.998c-33.501,0-46.499-19.502-46.499-141.999c0-96-43.5-156-118.5-164.999V46
	c0-10.999-8.999-20-20-20s-20,9.001-20,20v30c-80,6.501-126.498,67.5-126.498,165.5c0,122.499-14.502,142.001-48.501,142.001
	c-10.5,0.498-20,7.998-20,18.999c0,11.499,8.999,18.999,20,18.999h130c1.499,15,6,33.501,18,46.499
	C224.501,479.496,238.5,486,254.999,486s30.503-7.002,41.001-18.003c12.5-13.501,17.5-31.499,19.502-46.499h130.497
	c11.001,0,20-7.5,20-18.999C465.999,391.498,457,383.998,445.999,383.998z M267.001,441c-2.002,1.997-5,5-12.002,5
	c-6.499,0-9.5-3.003-11.499-5c-3.501-4.502-6.001-9.502-7-19.502h17c1.001,0,2,0,3,0c0.999,0,2,0,3.001,0H276
	C273.998,431.498,271.498,436.498,267.001,441z M258.998,381.498c-0.998,0-1.997,0-2.998,0s-2,0-3,0H135
	c18.501-35,18.501-89.501,18.501-140.5C153.5,159.5,189.001,116.5,253,116.5h5.5c63.999,0,99.502,43,99.502,124.499
	c0,50.999,0,105.5,18.495,140.5L258.998,381.498L258.998,381.498z M329.999,203.999c0.503,9.5-6.997,18.001-16.499,18.501
	c-0.498,0-0.498,0-1.001,0c-8.999,0-16.997-7.002-17.5-16.501c-1.499-22.5-18.999-30.5-21.001-31.499
	c-8.999-4.001-12.998-14.001-9.497-23s13.501-13,22.5-9.5C288.998,142.999,327.499,159,329.999,203.999z"/>
</svg>
